<?xml version="1.0" encoding="UTF-8" standalone="no"?>
<!DOCTYPE svg PUBLIC "-//W3C//DTD SVG 1.1//EN" "http://www.w3.org/Graphics/SVG/1.1/DTD/svg11.dtd">
<svg width="100%" height="100%" viewBox="0 0 597 1137" version="1.1" xmlns="http://www.w3.org/2000/svg" xmlns:xlink="http://www.w3.org/1999/xlink" xml:space="preserve" xmlns:serif="http://www.serif.com/" style="fill-rule:evenodd;clip-rule:evenodd;stroke-linecap:round;stroke-linejoin:round;stroke-miterlimit:1.5;">
    <g id="misc" transform="matrix(1,0,0,1,-1351.5,-706.5)">
        <g transform="matrix(1,0,0,1,1352.25,708.948)">
            <path d="M403,1118c-7.3,-3.2 -14.12,-10.33 -16.62,-13.5c-0.21,0.79 -0.88,2.88 -1.88,4.88c-1.25,2.5 -3.37,2.74 -1.37,7.24c2,4.5 2.62,5.5 2,7.88l4.87,-1.88l8,-2.87l5,-1.75Z" style="fill:rgb(189,189,189);fill-rule:nonzero;"/>
        </g>
        <g transform="matrix(1,0,0,1,1352.25,708.948)">
            <path d="M192.5,1118c7.3,-3.2 14.125,-10.33 16.625,-13.5c0.208,0.79 0.875,2.88 1.875,4.88c1.25,2.5 3.375,2.74 1.375,7.24c-2,4.5 -2.625,5.5 -2,7.88l-4.875,-1.88l-8,-2.87l-5,-1.75Z" style="fill:rgb(189,189,189);fill-rule:nonzero;"/>
        </g>
        <g transform="matrix(1,0,0,1,1352.25,708.948)">
            <path d="M384.75,1084.62c-10.6,8.2 -19,23.5 -21.88,30.13c2.34,-1.79 7.45,-5.7 9.26,-7c1.8,-1.3 3.91,-3.79 4.74,-4.87l7.88,-11.38c-0.6,-0.9 -0.25,-4.96 0,-6.88Z" style="fill:rgb(189,189,189);fill-rule:nonzero;"/>
        </g>
        <g transform="matrix(1,0,0,1,1352.25,708.948)">
            <path d="M210.75,1084.62c10.6,8.2 19,23.5 21.875,30.13c-2.333,-1.79 -7.45,-5.7 -9.25,-7c-1.8,-1.3 -3.917,-3.79 -4.75,-4.87l-7.875,-11.38c0.6,-0.9 0.25,-4.96 0,-6.88Z" style="fill:rgb(189,189,189);fill-rule:nonzero;"/>
        </g>
        <g transform="matrix(1,0,0,1,1352.25,708.948)">
            <path d="M393.87,958l-6.74,41.12c-5.84,9.65 -17.34,32.58 -19.66,51.54c-0.13,1.39 -0.25,2.72 -0.34,3.96c0.06,-1.29 0.18,-2.62 0.34,-3.96c2.43,-25.49 10.48,-74.077 26.4,-92.66Z" style="fill:rgb(189,189,189);fill-rule:nonzero;"/>
        </g>
        <g transform="matrix(1,0,0,1,1352.25,708.948)">
            <path d="M201.5,958l6.75,41.12c5.836,9.65 17.339,32.58 19.652,51.54c0.133,1.39 0.249,2.72 0.348,3.96c-0.066,-1.29 -0.184,-2.62 -0.348,-3.96c-2.426,-25.49 -10.474,-74.077 -26.402,-92.66Z" style="fill:rgb(189,189,189);fill-rule:nonzero;"/>
        </g>
        <g transform="matrix(1,0,0,1,1352.25,708.948)">
            <path d="M310.625,684.375l-6.625,-34.25l1.625,4l8.75,23.25l8.5,22.5l6,16.875l4.625,14.5c0.542,1.75 1.65,7.25 1.75,15.25c0.1,8 -2.208,15.5 -3.375,18.25l-4.375,10.5l-1.375,8l-0.625,-18.5l-1.25,-5.875l-3.375,-20.75l-1.125,-11.5l-3.875,-19l-5.25,-23.25Z" style="fill:rgb(189,189,189);fill-rule:nonzero;"/>
        </g>
        <g transform="matrix(1,0,0,1,1352.25,708.948)">
            <path d="M284.878,684.375l6.625,-34.25l-1.625,4l-8.75,23.25l-8.5,22.5l-6,16.875l-4.625,14.5c-0.542,1.75 -1.65,7.25 -1.75,15.25c-0.1,8 2.208,15.5 3.375,18.25l4.375,10.5l1.375,8l0.625,-18.5l1.25,-5.875l3.375,-20.75l1.125,-11.5l3.875,-19l5.25,-23.25Z" style="fill:rgb(189,189,189);fill-rule:nonzero;"/>
        </g>
        <g transform="matrix(1,0,0,1,1352.25,708.948)">
            <path d="M326.5,677.625c-6.958,-19.75 -21.275,-65.95 -22.875,-92.75c2.8,4.3 6.167,7.125 7.5,8l11,5.5c-2,15.8 2.083,59.417 4.375,79.25Z" style="fill:rgb(189,189,189);fill-rule:nonzero;"/>
        </g>
        <g transform="matrix(1,0,0,1,1352.25,708.948)">
            <path d="M269,677.625c6.958,-19.75 21.275,-65.95 22.875,-92.75c-2.8,4.3 -6.167,7.125 -7.5,8l-11,5.5c2,15.8 -2.083,59.417 -4.375,79.25Z" style="fill:rgb(189,189,189);fill-rule:nonzero;"/>
        </g>
        <g transform="matrix(1,0,0,1,1352.25,708.948)">
            <path d="M297.75,575.5l0,-11.75l0.625,6l2.125,9l3,6l1,9.25l2.5,13.625l2.875,13.375l4.75,17.75l3.5,12.5l4,13.625l4.625,13.25l3.5,25l4,31.125c-1.167,-3.667 -4.675,-14.6 -9.375,-29c-5.875,-18 -13.625,-31.625 -20.125,-53.25c-5.2,-17.3 -6.417,-39.875 -6.375,-49l-0.625,-27.5Z" style="fill:rgb(189,189,189);fill-rule:nonzero;"/>
        </g>
        <g transform="matrix(1,0,0,1,1352.25,708.948)">
            <path d="M297.75,575.5l0,-11.75l-0.625,6l-2.125,9l-3,6l-1,9.25l-2.5,13.625l-2.875,13.375l-4.75,17.75l-3.5,12.5l-4,13.625l-4.625,13.25l-3.5,25l-4,31.125c1.167,-3.667 4.675,-14.6 9.375,-29c5.875,-18 13.625,-31.625 20.125,-53.25c5.2,-17.3 6.417,-39.875 6.375,-49l0.625,-27.5Z" style="fill:rgb(189,189,189);fill-rule:nonzero;"/>
        </g>
        <g transform="matrix(1,0,0,1,1352.25,708.948)">
            <path d="M398.75,595c-0.29,-8.542 0.05,-32.15 3.75,-58.25c1.58,11.458 5,36.425 6,44.625c1,8.2 1.67,26.583 1.87,34.75l-0.37,20.875l-1.25,29l-1,21.75l-1.38,13.125c-1,5.875 -3.57,19.225 -5.87,25.625c-2.3,6.4 -5.87,18.833 -7.37,24.25l2.62,-44c0.58,-14.167 1.6,-45.225 1,-56.125c-0.6,-10.9 -3,-20.958 -4.12,-24.625c0.54,0.375 2.12,-0.15 4.12,-5.25c2,-5.1 2.17,-19.292 2,-25.75Z" style="fill:rgb(189,189,189);fill-rule:nonzero;"/>
        </g>
        <g transform="matrix(1,0,0,1,1352.25,708.948)">
            <path d="M196.625,595c0.292,-8.542 -0.05,-32.15 -3.75,-58.25c-1.583,11.458 -5,36.425 -6,44.625c-1,8.2 -1.667,26.583 -1.875,34.75l0.375,20.875l1.25,29l1,21.75l1.375,13.125c1,5.875 3.575,19.225 5.875,25.625c2.3,6.4 5.875,18.833 7.375,24.25l-2.625,-44c-0.583,-14.167 -1.6,-45.225 -1,-56.125c0.6,-10.9 3,-20.958 4.125,-24.625c-0.542,0.375 -2.125,-0.15 -4.125,-5.25c-2,-5.1 -2.167,-19.292 -2,-25.75Z" style="fill:rgb(189,189,189);fill-rule:nonzero;"/>
        </g>
        <g transform="matrix(1,0,0,1,1352.25,708.948)">
            <path d="M376.75,488c1.38,-10.375 3.88,-18.625 11.5,-22.75l1,1.625l0.88,4.5l2.87,8.375l2.25,9.25l2.5,17l2.88,16.5l1.75,12.125l-1.63,18l-2.5,-3l-4.12,-6.25l-4.25,-7.875l-6.63,-13.875l-6.87,-13.875c-0.34,-3.125 -0.73,-11.45 0.37,-19.75Z" style="fill:rgb(189,189,189);fill-rule:nonzero;"/>
        </g>
        <g transform="matrix(1,0,0,1,1352.25,708.948)">
            <path d="M218.875,488c-1.375,-10.375 -3.875,-18.625 -11.5,-22.75l-1,1.625l-0.875,4.5l-2.875,8.375l-2.25,9.25l-2.5,17l-2.875,16.5l-1.75,12.125l1.625,18l2.5,-3l4.125,-6.25l4.25,-7.875l6.625,-13.875l6.875,-13.875c0.333,-3.125 0.725,-11.45 -0.375,-19.75Z" style="fill:rgb(189,189,189);fill-rule:nonzero;"/>
        </g>
        <g transform="matrix(1,0,0,1,1352.25,708.948)">
            <path d="M569.75,526.375c-1.75,-1.25 -6.12,-3.875 -10.62,-5.75c-1.3,-0.542 -4.13,-1.7 -5.13,-2c-1.25,-0.375 -7.75,-2.5 -8.87,-4l-37.38,14.125c1.88,4.5 1.38,7.125 0.5,13.25c-0.88,6.125 1.5,13.625 2.62,20.25c0.57,3.327 1.51,7.411 2.49,11c0.96,3.558 1.96,6.631 2.64,8c1.37,2.75 4.25,10.5 4.63,12.25c0.37,1.75 4.74,15.25 5.37,16.875c0.63,1.625 3.25,12.25 7.5,11.75c3.12,-0.367 4.01,-2.278 4.12,-4.75c0.04,-0.9 -0.02,-1.874 -0.12,-2.875c-0.17,-1.708 -0.73,-4.219 -1.34,-6.625c-0.72,-2.877 -1.51,-5.604 -1.79,-6.625c-0.5,-1.875 -1.24,-6.875 -1.74,-8.625c-0.5,-1.75 -3.38,-9.125 -2,-9.5c1.37,-0.375 2.74,4.875 3.74,7.75c1,2.875 2.76,10.375 3.26,12.75c0.5,2.375 3.12,10.625 3.87,13.75c0.53,2.201 1.92,10.851 5.24,15.468c1.39,1.938 3.12,3.166 5.26,2.907c2.95,-0.357 4.04,-2.747 4.21,-5.75c0.26,-4.368 -1.42,-10.033 -2.08,-12.625c-1.13,-4.375 -1.26,-8 -2.5,-14.25c-1.26,-6.25 -5.13,-19.25 -5.5,-20c-0.38,-0.75 0.87,-1.375 1.5,-0.75c0.62,0.625 1.74,4.5 3.12,8.5c1.38,4 5.5,22.25 6,24.25c0.5,2 1.62,8.75 2.25,11.5c0.63,2.75 2.13,6.25 2.63,7.125c0.07,0.135 0.18,0.307 0.31,0.5c0.73,1.054 2.35,2.75 5.31,2.75c2.55,0 3.84,-1.793 4.35,-4.75c0.19,-1.1 0.27,-2.361 0.27,-3.75c0,-5.125 -1.87,-11.625 -2.62,-15.75c-0.75,-4.125 -0.62,-6.125 -1.5,-10.5c-0.88,-4.375 -4.62,-17.625 -5.25,-20.25c-0.63,-2.625 -2,-5.25 -2.25,-5.625c-0.25,-0.375 0.62,-1.5 1.12,-0.625c0.5,0.875 1.38,3.25 3.63,9.75c0.61,1.766 1.28,3.826 1.93,5.922c1.77,5.618 3.46,11.485 3.82,12.578c0.17,0.517 0.43,1.779 0.71,3.25c0.53,2.794 1.13,6.345 1.29,7c0.16,0.633 0.92,4.177 2.98,6.625c1.19,1.417 2.82,2.467 5.02,2.375c2.06,-0.086 3.22,-1.155 3.85,-2.625c1.21,-2.818 0.48,-7.107 0.4,-8.75c-0.13,-2.5 -1.37,-9.5 -2.37,-14.75c-1,-5.25 -3,-13.625 -4.13,-18.125c-1.13,-4.5 -4,-16.375 -5.75,-21.25c-1.4,-3.9 -4.17,-10.208 -5.38,-12.875c1.76,0 5.5,1.625 7.13,2.75c1.63,1.125 2.25,3 5.25,5.25c3,2.25 8.38,3.5 12.25,2c1.34,-0.517 2.15,-1.391 2.59,-2.375c0.82,-1.871 0.27,-4.142 -0.72,-5.125c-1.5,-1.5 -3.62,-2.875 -4.74,-4c-0.23,-0.222 -0.39,-0.428 -0.52,-0.629c-0.52,-0.82 -0.46,-1.541 -1.36,-2.746c-1.12,-1.5 -3.38,-3.625 -5.12,-5c-1.76,-1.375 -5.5,-3.125 -7.38,-4.25c-1.88,-1.125 -3.25,-3.125 -5,-4.375Z" style="fill:rgb(189,189,189);fill-rule:nonzero;"/>
        </g>
        <g transform="matrix(1,0,0,1,1352.25,708.948)">
            <path d="M25.737,526.375c1.75,-1.25 6.125,-3.875 10.625,-5.75c1.292,-0.542 4.125,-1.7 5.125,-2c1.25,-0.375 7.75,-2.5 8.875,-4l37.375,14.125c-1.875,4.5 -1.375,7.125 -0.5,13.25c0.875,6.125 -1.5,13.625 -2.625,20.25c-0.565,3.327 -1.508,7.411 -2.481,11c-0.965,3.558 -1.959,6.631 -2.644,8c-1.375,2.75 -4.25,10.5 -4.625,12.25c-0.375,1.75 -4.75,15.25 -5.375,16.875c-0.625,1.625 -3.25,12.25 -7.5,11.75c-3.115,-0.367 -4.014,-2.278 -4.124,-4.75c-0.04,-0.9 0.024,-1.874 0.124,-2.875c0.171,-1.708 0.731,-4.219 1.337,-6.625c0.725,-2.877 1.516,-5.604 1.788,-6.625c0.5,-1.875 1.25,-6.875 1.75,-8.625c0.5,-1.75 3.375,-9.125 2,-9.5c-1.375,-0.375 -2.75,4.875 -3.75,7.75c-1,2.875 -2.75,10.375 -3.25,12.75c-0.5,2.375 -3.125,10.625 -3.875,13.75c-0.528,2.201 -1.924,10.851 -5.237,15.468c-1.39,1.938 -3.119,3.166 -5.263,2.907c-2.954,-0.357 -4.04,-2.747 -4.214,-5.75c-0.253,-4.368 1.423,-10.033 2.089,-12.625c1.125,-4.375 1.25,-8 2.5,-14.25c1.25,-6.25 5.125,-19.25 5.5,-20c0.375,-0.75 -0.875,-1.375 -1.5,-0.75c-0.625,0.625 -1.75,4.5 -3.125,8.5c-1.375,4 -5.5,22.25 -6,24.25c-0.5,2 -1.625,8.75 -2.25,11.5c-0.625,2.75 -2.125,6.25 -2.625,7.125c-0.077,0.135 -0.182,0.307 -0.316,0.5c-0.732,1.054 -2.351,2.75 -5.309,2.75c-2.551,0 -3.84,-1.793 -4.352,-4.75c-0.19,-1.1 -0.273,-2.361 -0.273,-3.75c0,-5.125 1.875,-11.625 2.625,-15.75c0.75,-4.125 0.625,-6.125 1.5,-10.5c0.875,-4.375 4.625,-17.625 5.25,-20.25c0.625,-2.625 2,-5.25 2.25,-5.625c0.25,-0.375 -0.625,-1.5 -1.125,-0.625c-0.5,0.875 -1.375,3.25 -3.625,9.75c-0.611,1.766 -1.277,3.826 -1.934,5.922c-1.761,5.618 -3.452,11.485 -3.816,12.578c-0.172,0.517 -0.434,1.779 -0.713,3.25c-0.53,2.794 -1.123,6.345 -1.287,7c-0.158,0.633 -0.918,4.177 -2.98,6.625c-1.193,1.417 -2.821,2.467 -5.02,2.375c-2.056,-0.086 -3.217,-1.155 -3.849,-2.625c-1.213,-2.818 -0.483,-7.107 -0.401,-8.75c0.125,-2.5 1.375,-9.5 2.375,-14.75c1,-5.25 3,-13.625 4.125,-18.125c1.125,-4.5 4,-16.375 5.75,-21.25c1.4,-3.9 4.167,-10.208 5.375,-12.875c-1.75,0 -5.5,1.625 -7.125,2.75c-1.625,1.125 -2.25,3 -5.25,5.25c-3,2.25 -8.375,3.5 -12.25,2c-1.336,-0.517 -2.151,-1.391 -2.586,-2.375c-0.825,-1.871 -0.272,-4.142 0.711,-5.125c1.5,-1.5 3.625,-2.875 4.75,-4c0.222,-0.222 0.385,-0.428 0.513,-0.629c0.523,-0.82 0.459,-1.541 1.362,-2.746c1.125,-1.5 3.375,-3.625 5.125,-5c1.75,-1.375 5.5,-3.125 7.375,-4.25c1.875,-1.125 3.25,-3.125 5,-4.375Z" style="fill:rgb(189,189,189);fill-rule:nonzero;"/>
        </g>
        <g transform="matrix(1,0,0,1,1352.25,708.948)">
            <path d="M513.38,530.514c0,2.996 2.12,8.533 2.12,10.485c0,1.953 4.49,24.209 4.38,29.373c-0.1,4.542 2,15.099 3.12,13.829c-1.23,1.393 -0.01,3.35 0.65,4.837c0.67,1.488 2.11,6.343 2.38,8.784c0.13,1.206 0.74,1.956 1.57,2.219c-0.64,0.065 -0.57,2.982 0.42,4.012c0.98,1.03 1.46,4.638 1.73,5.434c0.26,0.797 1.89,7.734 3.46,3.922c1.57,-3.812 -1.27,-6.845 -1.54,-9.304c-0.26,-2.459 0.72,-4.633 -0.53,-5.575c0.79,-2.376 -2.08,-8.077 -2.34,-10.124c-0.29,-2.317 0.68,-3.928 -1.2,-4.205c2.45,-1.433 1.69,-7.152 0.75,-10.455c-1.17,-4.088 -1.47,-6.121 -2.3,-10.623c-0.36,-1.039 3.99,-2.271 4.33,-0.748c0.34,1.558 0.23,1.47 0.62,2.375c0.12,0.277 0.2,0.446 0.24,0.545c-0.03,-0.018 -0,0.206 0.39,1.47c0.9,2.957 2.78,11.606 2.56,12.325c-0.16,0.567 -1.08,3.414 1.97,3.512c-1.96,3.142 3.87,7.753 4.09,12.769c0.18,4.047 0.11,7.512 2.55,8.191c-2.14,0.309 2.99,11.434 4.11,13.559c0.89,1.677 2.28,7.559 3.47,7.25c1.59,-0.412 -0,-6.25 -0,-7.535c-0,-2.637 -1.66,-6.349 -2.04,-9.065c-0.38,-2.715 -0.71,-4.245 -2.03,-4.631c2.78,-1.279 0.32,-4.047 -0.1,-4.981c-0.48,-1.051 -2.55,-6.446 -2.11,-9.723c0.44,-3.277 0.07,-5.762 -1.81,-6.315c4.13,-2.357 -1.06,-6.374 -2.04,-8.993c-1.1,-2.927 -6.13,-15.989 -7.87,-23.739c-0.12,-0.489 -0.21,-0.908 -0.29,-1.266c0.67,0.639 1.81,1.812 1.79,1.627c2.87,-0.5 7.37,1.875 9.5,7.875c1.02,2.898 2.29,6.328 2.78,7.773c0.49,1.445 3.08,8.832 3.24,12.782c0.08,2.21 1.1,2.898 2.71,2.762c-1.86,1.922 -0.01,4.531 0.48,5.975c0.49,1.445 4.81,6.077 4.48,10.797c-0.18,2.618 0.69,3.26 1.95,3.154c-1.02,3.071 2.24,9.26 3,12.003c0.71,2.552 1.54,6.901 2.24,7.625c0.7,0.724 0.79,6.5 2.43,6.5c1.64,0 -0.15,-5.837 -0,-7.227c0.14,-1.39 -0,-5.648 -0.7,-7.488c-0.57,-1.497 -1.63,-7.374 -1.73,-9.744c-0.08,-2.039 -0.66,-2.994 -1.7,-2.777c2.46,-0.948 0.48,-2.929 -0.31,-4.186c-0.8,-1.274 -2.92,-10.343 -2.89,-11.373c0.04,-1.006 -0.1,-5.666 -2.9,-4.603c0.12,-0.054 0.25,-0.109 0.38,-0.165c4.17,-1.784 -0,-6.305 -0.09,-7.522c-0.21,-2.699 -0,-6.036 0.38,-8.161l1.75,-3.75c1.25,2.625 2.25,3.75 3.61,8.503c0.91,3.162 0.87,3.925 3.04,3.408c-1.46,0.766 0.43,4.501 1.51,6.336c1.07,1.836 3.64,6.649 4,9.026c0.25,1.705 0.92,3.009 2.48,3.106c-0.43,0.49 0.25,1.502 0.52,3.367c0.27,1.866 1.48,10.875 2.5,12c1.02,1.125 1.75,8.5 4,8.501c2.25,0 -0.35,-7.642 -0,-9.376c0.34,-1.734 -2,-9.579 -2.25,-11.125c-0.26,-1.545 -0.01,-4.857 -1.45,-4.437c1.88,-1.429 -0.21,-3.114 -1.51,-5.961c-1.42,-3.101 -1.12,-2.661 -2.17,-8.726c-1.05,-6.065 -1.53,-4.236 -3.08,-4.25c2.7,-1.453 0.37,-5.393 -4.55,-11.375c-5.66,-6.889 -12.15,-16.247 -9.4,-27.372c3,3.125 3.63,2.029 6.36,3.375l1.64,3.125c1.54,1.391 3.31,3.058 3.88,1.439c0.2,1.108 1.04,1.629 2.52,1.435c1.49,-0.194 7.35,2.457 9.19,4.99c0.78,1.062 1.66,0.957 2.45,0.362c0.95,0.826 1.91,1.771 3.59,2.655c2.24,1.178 4.28,2.865 5.11,1.769c0.84,-1.096 -2.32,-2.639 -3.2,-3.531c-0.88,-0.893 -1.75,-2.063 -3.59,-3.713c0.08,-0.244 0.13,-0.466 0.16,-0.651c0.17,-1.536 -5.27,-2.717 -6.66,-3.671c-1.38,-0.954 -2.3,-0.467 -4.07,-3.388c-1.76,-2.921 -3.74,-0.647 -4.01,-0.359c0.14,-0.336 0.23,-0.67 0.18,-1.032c-0.18,-1.364 -1.85,-1.608 -3.07,-2.248c-4.12,-2.167 -11.23,-5.557 -22.61,-15.557l-3.37,1.125l-27.25,12.764Z" style="fill:rgb(224,224,224);fill-rule:nonzero;"/>
        </g>
        <g transform="matrix(1,0,0,1,1352.25,708.948)">
            <path d="M82.112,530.514c0,2.996 -2.125,8.533 -2.125,10.485c0,1.953 -4.487,24.209 -4.375,29.373c0.099,4.542 -2.001,15.099 -3.125,13.829c1.233,1.393 0.014,3.35 -0.651,4.837c-0.666,1.488 -2.106,6.343 -2.379,8.784c-0.134,1.206 -0.737,1.956 -1.568,2.219c0.641,0.065 0.565,2.982 -0.42,4.012c-0.986,1.03 -1.465,4.638 -1.727,5.434c-0.262,0.797 -1.894,7.734 -3.466,3.922c-1.572,-3.812 1.267,-6.845 1.536,-9.304c0.27,-2.459 -0.714,-4.633 0.537,-5.575c-0.795,-2.376 2.083,-8.077 2.34,-10.124c0.29,-2.317 -0.682,-3.928 1.2,-4.205c-2.454,-1.433 -1.693,-7.152 -0.75,-10.455c1.167,-4.088 1.473,-6.121 2.3,-10.623c0.358,-1.039 -3.989,-2.271 -4.327,-0.748c-0.345,1.558 -0.232,1.47 -0.625,2.375c-0.12,0.277 -0.197,0.446 -0.243,0.545c0.034,-0.018 0.006,0.206 -0.382,1.47c-0.906,2.957 -2.78,11.606 -2.569,12.325c0.166,0.567 1.081,3.414 -1.967,3.512c1.963,3.142 -3.866,7.753 -4.089,12.769c-0.18,4.047 -0.107,7.512 -2.549,8.191c2.138,0.309 -2.987,11.434 -4.112,13.559c-0.888,1.677 -2.279,7.559 -3.47,7.25c-1.589,-0.412 0,-6.25 0,-7.535c0,-2.637 1.666,-6.349 2.043,-9.065c0.376,-2.715 0.709,-4.245 2.025,-4.631c-2.773,-1.279 -0.314,-4.047 0.107,-4.981c0.473,-1.051 2.546,-6.446 2.106,-9.723c-0.439,-3.277 -0.072,-5.762 1.814,-6.315c-4.133,-2.357 1.055,-6.374 2.036,-8.993c1.096,-2.927 6.128,-15.989 7.875,-23.739c0.11,-0.489 0.205,-0.908 0.286,-1.266c-0.666,0.639 -1.806,1.812 -1.786,1.627c-2.875,-0.5 -7.375,1.875 -9.5,7.875c-1.026,2.898 -2.295,6.328 -2.786,7.773c-0.491,1.445 -3.084,8.832 -3.237,12.782c-0.086,2.21 -1.104,2.898 -2.712,2.762c1.86,1.922 0.015,4.531 -0.477,5.975c-0.491,1.445 -4.818,6.077 -4.487,10.797c0.183,2.618 -0.688,3.26 -1.947,3.154c1.023,3.071 -2.235,9.26 -2.998,12.003c-0.709,2.552 -1.544,6.901 -2.245,7.625c-0.7,0.724 -0.785,6.5 -2.424,6.5c-1.639,0 0.144,-5.837 0,-7.227c-0.144,-1.39 0,-5.648 0.7,-7.488c0.569,-1.497 1.632,-7.374 1.724,-9.744c0.08,-2.039 0.667,-2.994 1.704,-2.777c-2.456,-0.948 -0.482,-2.929 0.308,-4.186c0.801,-1.274 2.927,-10.343 2.888,-11.373c-0.038,-1.006 0.104,-5.666 2.908,-4.603c-0.128,-0.054 -0.258,-0.109 -0.388,-0.165c-4.164,-1.784 0,-6.305 0.094,-7.522c0.21,-2.699 0,-6.036 -0.375,-8.161l-1.75,-3.75c-1.25,2.625 -2.25,3.75 -3.614,8.503c-0.907,3.162 -0.874,3.925 -3.043,3.408c1.461,0.766 -0.426,4.501 -1.504,6.336c-1.078,1.836 -3.642,6.649 -4,9.026c-0.256,1.705 -0.926,3.009 -2.487,3.106c0.437,0.49 -0.244,1.502 -0.513,3.367c-0.269,1.866 -1.48,10.875 -2.5,12c-1.02,1.125 -1.75,8.5 -4,8.501c-2.25,0 0.344,-7.642 0,-9.376c-0.343,-1.734 1.998,-9.579 2.25,-11.125c0.253,-1.545 0.001,-4.857 1.448,-4.437c-1.879,-1.429 0.21,-3.114 1.511,-5.961c1.416,-3.101 1.115,-2.661 2.166,-8.726c1.052,-6.065 1.53,-4.236 3.081,-4.25c-2.699,-1.453 -0.37,-5.393 4.548,-11.375c5.663,-6.889 12.157,-16.247 9.407,-27.372c-3,3.125 -3.636,2.029 -6.364,3.375l-1.636,3.125c-1.546,1.391 -3.316,3.058 -3.883,1.439c-0.202,1.108 -1.038,1.629 -2.526,1.435c-1.487,-0.194 -7.348,2.457 -9.19,4.99c-0.774,1.062 -1.66,0.957 -2.443,0.362c-0.948,0.826 -1.909,1.771 -3.589,2.655c-2.24,1.178 -4.28,2.865 -5.117,1.769c-0.838,-1.096 2.321,-2.639 3.204,-3.531c0.883,-0.893 1.747,-2.063 3.593,-3.713c-0.083,-0.244 -0.138,-0.466 -0.16,-0.651c-0.178,-1.536 5.271,-2.717 6.656,-3.671c1.385,-0.954 2.298,-0.467 4.065,-3.388c1.768,-2.921 3.74,-0.647 4.017,-0.359c-0.146,-0.336 -0.227,-0.67 -0.18,-1.032c0.178,-1.364 1.849,-1.608 3.066,-2.248c4.123,-2.167 11.237,-5.557 22.612,-15.557l3.375,1.125l27.25,12.764Z" style="fill:rgb(224,224,224);fill-rule:nonzero;"/>
        </g>
        <g transform="matrix(1,0,0,1,1352.25,708.948)">
            <path d="M511.63,520.375c-1.92,0.042 -6.33,-0.5 -8.63,-3l5.25,12.625c3.12,1 8.5,0.375 15.88,-1.875c7.37,-2.25 14.37,-6.5 17.62,-9.125c2.6,-2.1 3.17,-4.042 3.12,-4.75l-5.12,-12.625c1.7,4.6 -3.12,8.917 -5.75,10.5c-2.71,1.458 -8.98,4.725 -12.37,6.125c-3.4,1.4 -8.09,2 -10,2.125Z" style="fill:rgb(224,224,224);fill-rule:nonzero;"/>
        </g>
        <g transform="matrix(1,0,0,1,1352.25,708.948)">
            <path d="M83.752,520.375c1.917,0.042 6.325,-0.5 8.625,-3l-5.25,12.625c-3.125,1 -8.5,0.375 -15.875,-1.875c-7.375,-2.25 -14.375,-6.5 -17.625,-9.125c-2.6,-2.1 -3.167,-4.042 -3.125,-4.75l5.125,-12.625c-1.7,4.6 3.125,8.917 5.75,10.5c2.708,1.458 8.975,4.725 12.375,6.125c3.4,1.4 8.083,2 10,2.125Z" style="fill:rgb(224,224,224);fill-rule:nonzero;"/>
        </g>
        <g transform="matrix(1,0,0,1,1352.25,708.948)">
            <path d="M507.37,470.375c-1.62,-14 -0.24,-24.25 -3,-55.875c2.6,7 5.5,24.417 6.63,32.25c1.37,10.542 4.35,33.675 5.25,41.875c0.9,8.2 4.79,22.833 6.62,29.125l-4.87,1.625c-3,-7.125 -9,-35 -10.63,-49Z" style="fill:rgb(189,189,189);fill-rule:nonzero;"/>
        </g>
        <g transform="matrix(1,0,0,1,1352.25,708.948)">
            <path d="M88,470.375c1.625,-14 0.25,-24.25 3,-55.875c-2.6,7 -5.5,24.417 -6.625,32.25c-1.375,10.542 -4.35,33.675 -5.25,41.875c-0.9,8.2 -4.792,22.833 -6.625,29.125l4.875,1.625c3,-7.125 9,-35 10.625,-49Z" style="fill:rgb(189,189,189);fill-rule:nonzero;"/>
        </g>
        <g transform="matrix(1,0,0,1,1352.25,708.948)">
            <path d="M498.87,382.875l3.38,-9.625l6.38,14.5l3.5,9.875l3.74,12.5l3,10.875l3.63,17.625l2.63,13.5l3.62,16.875l4.25,13.125c1.46,4.583 4.78,14.625 6.37,18.125c2,4.375 -0.74,9 -5.37,11.875c-3.7,2.3 -9.13,4.625 -11.37,5.5l-2,-7.125l-2.63,-11.625l-3.5,-23.375l-2.37,-19.875l-2,-14.75l-3.26,-17.875l-2.37,-8.75c-1.5,-14.6 -4.37,-27 -5.63,-31.375Z" style="fill:rgb(189,189,189);fill-rule:nonzero;"/>
        </g>
        <g transform="matrix(1,0,0,1,1352.25,708.948)">
            <path d="M96.661,382.875l-3.375,-9.625l-6.375,14.5l-3.5,9.875l-3.75,12.5l-3,10.875l-3.625,17.625l-2.625,13.5l-3.625,16.875l-4.25,13.125c-1.458,4.583 -4.775,14.625 -6.375,18.125c-2,4.375 0.75,9 5.375,11.875c3.7,2.3 9.125,4.625 11.375,5.5l2,-7.125l2.625,-11.625l3.5,-23.375l2.375,-19.875l2,-14.75l3.25,-17.875l2.375,-8.75c1.5,-14.6 4.375,-27 5.625,-31.375Z" style="fill:rgb(189,189,189);fill-rule:nonzero;"/>
        </g>
        <g transform="matrix(1,0,0,1,1352.25,708.948)">
            <path d="M485.37,450.75c-3.87,-21.625 5.25,-45.625 13.5,-68c1.9,5.6 4.21,20.833 5.13,27.75c0.96,14.083 2.87,44.525 2.87,53.625c0,9.1 4,27.708 6,35.875l5.13,19.5c-1.88,0.458 -6.73,1.1 -11.13,0c-1.9,-10.8 -10.79,-37.667 -15,-49.75c-1.29,-3.042 -4.4,-11.1 -6.5,-19Z" style="fill:rgb(189,189,189);fill-rule:nonzero;"/>
        </g>
        <g transform="matrix(1,0,0,1,1352.25,708.948)">
            <path d="M110.125,450.75c3.875,-21.625 -5.25,-45.625 -13.5,-68c-1.9,5.6 -4.208,20.833 -5.125,27.75c-0.958,14.083 -2.875,44.525 -2.875,53.625c0,9.1 -4,27.708 -6,35.875l-5.125,19.5c1.875,0.458 6.725,1.1 11.125,0c1.9,-10.8 10.792,-37.667 15,-49.75c1.292,-3.042 4.4,-11.1 6.5,-19Z" style="fill:rgb(189,189,189);fill-rule:nonzero;"/>
        </g>
        <g transform="matrix(1,0,0,1,1352.25,708.948)">
            <path d="M479.37,407.25c-1.37,2.25 -6.24,2.875 -8.12,6.625l7,18.625l4.12,11.125l2.88,6.875l-0.62,-11.5l0.62,-9.5l2,-10.75l4.5,-15.875l6.12,-17.75l4.38,-11.875l-6.75,-12.75l-4.25,-7.75l-2.62,-4.75c0.5,3.25 0.12,12.25 -0.88,18.875c-0.8,5.3 -3.08,12.292 -4.12,15.125c-0.76,1.583 -2.4,4.75 -3,4.75c-0.61,0 -1.09,-0.75 -1.26,-1.125c0.71,2.625 2.11,8.95 2,13.25c-0.12,5.305 -0.61,6.105 -1.94,8.288l-0.06,0.087Z" style="fill:rgb(189,189,189);fill-rule:nonzero;"/>
        </g>
        <g transform="matrix(1,0,0,1,1352.25,708.948)">
            <path d="M116.125,407.25c1.375,2.25 6.25,2.875 8.125,6.625l-7,18.625l-4.125,11.125l-2.875,6.875l0.625,-11.5l-0.625,-9.5l-2,-10.75l-4.5,-15.875l-6.125,-17.75l-4.375,-11.875l6.75,-12.75l4.25,-7.75l2.625,-4.75c-0.5,3.25 -0.125,12.25 0.875,18.875c0.8,5.3 3.083,12.292 4.125,15.125c0.75,1.583 2.4,4.75 3,4.75c0.6,0 1.083,-0.75 1.25,-1.125c-0.708,2.625 -2.1,8.95 -2,13.25c0.123,5.305 0.612,6.105 1.947,8.288l0.053,0.087Z" style="fill:rgb(189,189,189);fill-rule:nonzero;"/>
        </g>
        <g transform="matrix(1,0,0,1,1352.25,708.948)">
            <path d="M439.37,396l-4,-23.5c2,2.25 5.63,11.25 7,15c1.11,3 5.8,7.5 8,9.375c1.42,1 4.46,3.425 5.26,5.125c0.79,1.7 2.74,3.458 3.62,4.125c0.3,6.4 6.54,10.917 9.62,12.375l2.5,-4.375l3.76,9.875l4.5,12.375l5.37,14l7.87,22.5l8.5,25.875l5.38,20.875l-2.75,-1l-5.87,-11.625l-6.76,-11.5l-9.37,-14.125c-3.75,-5.042 -12,-16.225 -15,-20.625c-3.75,-5.5 -7.87,-13.125 -14.87,-26.125c-5.61,-10.4 -10.84,-30.083 -12.76,-38.625Z" style="fill:rgb(189,189,189);fill-rule:nonzero;"/>
        </g>
        <g transform="matrix(1,0,0,1,1352.25,708.948)">
            <path d="M156.125,396l4,-23.5c-2,2.25 -5.625,11.25 -7,15c-1.1,3 -5.792,7.5 -8,9.375c-1.417,1 -4.45,3.425 -5.25,5.125c-0.8,1.7 -2.75,3.458 -3.625,4.125c-0.3,6.4 -6.542,10.917 -9.625,12.375l-2.5,-4.375l-3.75,9.875l-4.5,12.375l-5.375,14l-7.875,22.5l-8.5,25.875l-5.375,20.875l2.75,-1l5.875,-11.625l6.75,-11.5l9.375,-14.125c3.75,-5.042 12,-16.225 15,-20.625c3.75,-5.5 7.875,-13.125 14.875,-26.125c5.6,-10.4 10.833,-30.083 12.75,-38.625Z" style="fill:rgb(189,189,189);fill-rule:nonzero;"/>
        </g>
        <g transform="matrix(1,0,0,1,1352.25,708.948)">
            <path d="M321.5,119.875c0.75,4.625 5,24.875 17.125,35.125l-1.25,-3.125l0,-58c-1.2,-1.3 -4.167,-1.875 -5.5,-2c-0.875,-0.083 -3.3,0.1 -6,1.5c-4.625,4.75 -5.125,21.875 -4.375,26.5Z" style="fill:rgb(189,189,189);fill-rule:nonzero;"/>
        </g>
        <g transform="matrix(1,0,0,1,1352.25,708.948)">
            <path d="M273.875,119.767c-0.75,4.625 -5,24.875 -17.125,35.125l1.25,-3.125l0,-58c1.2,-1.3 4.167,-1.875 5.5,-2c0.875,-0.083 3.3,0.1 6,1.5c4.625,4.75 5.125,21.875 4.375,26.5Z" style="fill:rgb(189,189,189);fill-rule:nonzero;"/>
        </g>
        <g transform="matrix(1,0,0,1,1352.25,708.948)">
            <path d="M312.957,88c-15.875,-2.25 -11.75,-14.75 -9.5,-30.75c1.839,-12.375 23.25,-4.25 30.25,0c7,4.25 4.5,12.375 1.125,22.75c-3.375,10.375 -6,10.25 -21.875,8Z" style="fill:rgb(189,189,189);fill-rule:nonzero;"/>
        </g>
        <g transform="matrix(1,0,0,1,1352.25,708.948)">
            <path d="M282.47,88c15.875,-2.25 11.75,-14.75 9.5,-30.75c-1.84,-12.375 -23.25,-4.25 -30.25,0c-7,4.25 -4.5,12.375 -1.125,22.75c3.375,10.375 6,10.25 21.875,8Z" style="fill:rgb(189,189,189);fill-rule:nonzero;"/>
        </g>
    </g>
    <g id="hamstrings" transform="matrix(1,0,0,1,-1351.5,-706.5)">
        <g transform="matrix(1,0,0,1,1352.25,708.948)">
            <path d="M363.12,634.5c-0.5,-7.7 -2.12,-23.208 -2.87,-30c-4.5,-0.5 -14.725,-1.625 -19.625,-2.125c-4.9,-0.5 -14.542,-3.125 -18.75,-4.375l0,18.125l0.75,19.25l2.125,23.125l2.875,27l2.875,20.75l4,29.5c1,5.208 1.85,18.325 -2.75,29.125c-5.737,13.47 -5.626,16.487 -5.253,26.558l0.003,0.067c0.3,8.1 3.792,19.958 5.5,24.875c1.208,3.833 3.925,12.875 5.125,18.375c1.2,5.5 0.5,14.542 0,18.375c0.792,-4.042 2.575,-13.65 3.375,-19.75c0.8,-6.1 1,-24.542 1,-33l-0.25,-10.75c-0.458,-2.125 -1.1,-6.75 0,-8.25c1.1,-1.5 6.875,-1.375 9.625,-1.125c1.042,-2.208 4.095,-10.275 7.995,-24.875c3.9,-14.6 5.3,-40.583 5.5,-51.75l0,-30.875c-0.2,-9.542 -0.75,-30.55 -1.25,-38.25Z" style="fill:rgb(189,189,189);fill-rule:nonzero;"/>
        </g>
        <g transform="matrix(1,0,0,1,1352.25,708.948)">
            <path d="M232.5,634.5c0.5,-7.7 2.125,-23.208 2.875,-30c4.5,-0.5 14.725,-1.625 19.625,-2.125c4.9,-0.5 14.542,-3.125 18.75,-4.375l0,18.125l-0.75,19.25l-2.125,23.125l-2.875,27l-2.875,20.75l-4,29.5c-1,5.208 -1.85,18.325 2.75,29.125c5.737,13.47 5.626,16.487 5.253,26.558l-0.003,0.067c-0.3,8.1 -3.792,19.958 -5.5,24.875c-1.208,3.833 -3.925,12.875 -5.125,18.375c-1.2,5.5 -0.5,14.542 0,18.375c-0.792,-4.042 -2.575,-13.65 -3.375,-19.75c-0.8,-6.1 -1,-24.542 -1,-33l0.25,-10.75c0.458,-2.125 1.1,-6.75 0,-8.25c-1.1,-1.5 -6.875,-1.375 -9.625,-1.125c-1.042,-2.208 -4.1,-10.275 -8,-24.875c-3.9,-14.6 -5.292,-40.583 -5.5,-51.75l0,-30.875c0.208,-9.542 0.75,-30.55 1.25,-38.25Z" style="fill:rgb(189,189,189);fill-rule:nonzero;"/>
        </g>
        <g transform="matrix(1,0,0,1,1352.25,708.948)">
            <path d="M231.383,714.125c-0.584,-19.416 -0.625,-68.5 3.875,-109.5c-1.875,-0.083 -7.525,0.375 -15.125,2.875c-9.5,3.125 -13.75,10.75 -14.875,12.625c-0.9,1.5 -2.625,6.292 -3.375,8.5c-0.5,2.625 -1.7,9.375 -2.5,15.375c-0.8,6 -0.917,18.584 -0.875,24.125l0.625,25.875l1.125,24.375c0.25,6.167 1,20.65 2,29.25c1.25,10.75 -0.625,17.375 -1.875,22.375c-1,4 -1.167,13.417 -1.125,17.625l0.375,18.5l0.375,11.625c1.041,-3.75 3.8,-13.025 6.5,-20.125c3.375,-8.875 9,-14.75 13.875,-20.5c4.875,-5.75 9,-21.125 11,-32.125c1.6,-8.8 0.666,-24.25 0,-30.875Z" style="fill:rgb(189,189,189);fill-rule:nonzero;"/>
        </g>
        <g transform="matrix(1,0,0,1,1352.25,708.948)">
            <path d="M364.13,714.125c0.58,-19.416 0.62,-68.5 -3.88,-109.5c1.88,-0.083 7.53,0.375 15.12,2.875c9.5,3.125 13.76,10.75 14.88,12.625c0.9,1.5 2.62,6.292 3.38,8.5c0.5,2.625 1.7,9.375 2.5,15.375c0.79,6 0.91,18.584 0.87,24.125l-0.63,25.875l-1.12,24.375c-0.25,6.167 -1,20.65 -2,29.25c-1.25,10.75 0.62,17.375 1.88,22.375c1,4 1.16,13.417 1.12,17.625l-0.38,18.5l-0.37,11.625c-1.04,-3.75 -3.8,-13.025 -6.5,-20.125c-3.37,-8.875 -9,-14.75 -13.87,-20.5c-4.88,-5.75 -9,-21.125 -11,-32.125c-1.6,-8.8 -0.67,-24.25 0,-30.875Z" style="fill:rgb(189,189,189);fill-rule:nonzero;"/>
        </g>
    </g>
    <g id="calves" transform="matrix(1,0,0,1,-1351.5,-706.5)">
        <g transform="matrix(1,0,0,1,1352.25,708.948)">
            <path d="M341.292,793.125c-0.125,7.875 2.125,35.625 -5.125,64.25c-1.9,6.6 -4.542,24 -5.625,31.875c-0.991,12.258 -1.463,25.685 1.116,40.75c0.494,2.891 1.101,5.842 1.839,8.856c8.208,29.071 17.96,32.142 22.793,31.894c4.88,-0.25 12.39,-11.875 11.9,-27c-0.09,-2.814 -0.18,-5.35 -0.27,-7.625c0.75,18.75 11.12,26.25 15.12,26.375c3.8,0.119 9.73,-2.012 13.32,-21.12c2.86,-18.471 6.01,-40.009 7.06,-53.755c1.62,-21.25 -7.6,-66.875 -8.38,-70.75c-2.41,-12.055 -6.4,-17.957 -7.78,-23.75c-0.26,-1.114 -0.43,-2.225 -0.47,-3.375c-0.2,-5.7 2.25,-7.25 2.75,-10.375c0,-1.041 -1.9,-3.15 -9.5,-3.25c-9.5,-0.125 -14,9.5 -15.37,9.5c-1.38,0 -5,-1.625 -8.13,-3.625c-1.4,-0.896 -3.43,-1.491 -5.623,-1.774c-2.702,-0.347 -5.655,-0.221 -8,0.399c-4.25,1.125 -1.5,4.625 -1.625,12.5Z" style="fill:rgb(189,189,189);fill-rule:nonzero;"/>
        </g>
        <g transform="matrix(1,0,0,1,1352.25,708.948)">
            <path d="M254.066,793.125c0.125,7.875 -2.125,35.625 5.125,64.25c1.9,6.6 4.542,24 5.625,31.875c0.992,12.258 1.463,25.685 -1.115,40.75c-0.495,2.891 -1.102,5.842 -1.839,8.856c-8.208,29.071 -17.961,32.142 -22.796,31.894c-4.875,-0.25 -12.387,-11.875 -11.899,-27c0.091,-2.814 0.183,-5.35 0.274,-7.625c-0.752,18.75 -11.125,26.25 -15.125,26.375c-3.794,0.119 -9.726,-2.012 -13.313,-21.12c-2.867,-18.471 -6.011,-40.009 -7.062,-53.755c-1.625,-21.25 7.6,-66.875 8.375,-70.75c2.411,-12.055 6.405,-17.957 7.778,-23.75c0.265,-1.114 0.432,-2.225 0.472,-3.375c0.2,-5.7 -2.25,-7.25 -2.75,-10.375c-0,-1.041 1.9,-3.15 9.5,-3.25c9.5,-0.125 14,9.5 15.375,9.5c1.375,0 5,-1.625 8.125,-3.625c1.401,-0.896 3.43,-1.491 5.625,-1.774c2.702,-0.347 5.656,-0.221 8,0.399c4.25,1.125 1.5,4.625 1.625,12.5Z" style="fill:rgb(189,189,189);fill-rule:nonzero;"/>
        </g>
    </g>
    <g id="glutes" transform="matrix(1,0,0,1,-1351.5,-706.5)">
        <g transform="matrix(1,0,0,1,1352.25,708.948)">
            <path d="M320.375,497.875c2.417,-4.833 8.125,-17.95 11.625,-31.75c0.833,-2.167 3.125,-7.075 5.625,-9.375c2.5,-2.3 7.542,-0.708 9.75,0.375l5.125,3.5l5,5.5l3.25,6.25l4.75,11.25l5.88,14.25l4.37,8.5c3.63,7.125 11.5,22.85 14,28.75c2.5,5.9 8.38,14.125 11,17.5l-1,13.125l-1.12,20.5c0,6.958 -0.13,22.55 -0.63,29.25c-0.5,6.7 -3.79,9.792 -5.37,10.5c-1.05,-2.542 -3.93,-8.55 -7.13,-12.25c-5.8,-6.4 -17.83,-8.667 -23.12,-9l-23.88,-2.75c-7.958,-0.958 -25.675,-5.15 -32.875,-14.25c-9,-11.375 -7.875,-24.125 -7.875,-37.5c0,-13.375 1.375,-18.625 3.25,-22.75c1.875,-4.125 6.75,-9.375 10,-13.375c2.6,-3.2 7.333,-12.167 9.375,-16.25Z" style="fill:rgb(189,189,189);fill-rule:nonzero;"/>
        </g>
        <g transform="matrix(1,0,0,1,1352.25,708.948)">
            <path d="M275.125,497.875c-2.417,-4.833 -8.125,-17.95 -11.625,-31.75c-0.833,-2.167 -3.125,-7.075 -5.625,-9.375c-2.5,-2.3 -7.542,-0.708 -9.75,0.375l-5.125,3.5l-5,5.5l-3.25,6.25l-4.75,11.25l-5.875,14.25l-4.375,8.5c-3.625,7.125 -11.5,22.85 -14,28.75c-2.5,5.9 -8.375,14.125 -11,17.5l1,13.125l1.125,20.5c0,6.958 0.125,22.55 0.625,29.25c0.5,6.7 3.792,9.792 5.375,10.5c1.042,-2.542 3.925,-8.55 7.125,-12.25c5.8,-6.4 17.833,-8.667 23.125,-9l23.875,-2.75c7.958,-0.958 25.675,-5.15 32.875,-14.25c9,-11.375 7.875,-24.125 7.875,-37.5c0,-13.375 -1.375,-18.625 -3.25,-22.75c-1.875,-4.125 -6.75,-9.375 -10,-13.375c-2.6,-3.2 -7.333,-12.167 -9.375,-16.25Z" style="fill:rgb(189,189,189);fill-rule:nonzero;"/>
        </g>
    </g>
    <g id="lowerBack" transform="matrix(1,0,0,1,-1351.5,-706.5)">
        <g transform="matrix(1,0,0,1,1352.25,708.948)">
            <path d="M364.87,444.625c6.38,2.375 16.76,8.625 23.38,20.625c-5.1,2.499 -7.96,8.208 -8.75,10.75c-4,11.5 -3.58,26.292 -2.87,32.25l-4.63,-9.25l-6.25,-14.5l-5.5,-13.5c-0.71,-1.667 -3.02,-5.875 -6.62,-9.375c-7.005,-6.9 -13.172,-6.458 -15.38,-5.375c4.083,-3.083 12.575,-9.5 13.875,-10.5c1.625,-1.25 6.375,-3.5 12.745,-1.125Z" style="fill:rgb(189,189,189);fill-rule:nonzero;"/>
        </g>
        <g transform="matrix(1,0,0,1,1352.25,708.948)">
            <path d="M230.625,444.625c-6.375,2.375 -16.75,8.625 -23.375,20.625c5.1,2.499 7.958,8.208 8.75,10.75c4,11.5 3.583,26.292 2.875,32.25l4.625,-9.25l6.25,-14.5l5.5,-13.5c0.708,-1.667 3.025,-5.875 6.625,-9.375c7,-6.9 13.167,-6.458 15.375,-5.375c-4.083,-3.083 -12.575,-9.5 -13.875,-10.5c-1.625,-1.25 -6.375,-3.5 -12.75,-1.125Z" style="fill:rgb(189,189,189);fill-rule:nonzero;"/>
        </g>
        <path d="M1649.8,1080.89l0,140.71c0,-0 -13.12,-17.3 -18.24,-27.7c-5.11,-10.4 -9.89,-28.06 -9.89,-30.88c0,-2.83 13.61,-22.64 13.61,-27.94c0,-5.31 1.24,-9.58 2.83,-17.58c1.59,-8 11.69,-36.61 11.69,-36.61Z" style="fill:rgb(191,188,188);stroke:rgb(35,31,32);stroke-width:1px;"/>
        <g transform="matrix(-1,0,0,1,3299.6,0)">
            <path d="M1649.8,1080.89l0,140.71c0,-0 -13.12,-17.3 -18.24,-27.7c-5.11,-10.4 -9.89,-28.06 -9.89,-30.88c0,-2.83 13.61,-22.64 13.61,-27.94c0,-5.31 1.24,-9.58 2.83,-17.58c1.59,-8 11.69,-36.61 11.69,-36.61Z" style="fill:rgb(191,188,188);stroke:rgb(35,31,32);stroke-width:1px;"/>
        </g>
    </g>
    <g id="obliques" transform="matrix(1,0,0,1,-1351.5,-706.5)">
        <g transform="matrix(1,0,0,1,1352.25,708.948)">
            <path d="M369.37,418.25c8.8,-9.8 15.26,-22.083 17.38,-27c-0.25,3.042 -0.83,10.6 -1.12,16.5c-0.3,5.9 0.54,11.792 1,14l1.74,9.5c0.55,2.917 1.63,9.15 1.63,10.75c0,1.6 -0.25,8.75 -0.37,12.125l-0.5,13l-4.13,-7c-1.75,-2.125 -6.1,-7.375 -9.5,-11.375c-3.4,-4 -7,-6.917 -8.37,-7.875c-2.63,-0.208 -8.65,-0.825 -11.76,-1.625c-3.095,-0.8 -7.37,0.75 -9.12,1.625c4.042,-3.458 14.32,-12.825 23.12,-22.625Z" style="fill:rgb(189,189,189);fill-rule:nonzero;"/>
        </g>
        <g transform="matrix(1,0,0,1,1352.25,708.948)">
            <path d="M226.125,418.25c-8.8,-9.8 -15.25,-22.083 -17.375,-27c0.25,3.042 0.825,10.6 1.125,16.5c0.3,5.9 -0.542,11.792 -1,14l-1.75,9.5c-0.542,2.917 -1.625,9.15 -1.625,10.75c0,1.6 0.25,8.75 0.375,12.125l0.5,13l4.125,-7c1.75,-2.125 6.1,-7.375 9.5,-11.375c3.4,-4 7,-6.917 8.375,-7.875c2.625,-0.208 8.65,-0.825 11.75,-1.625c3.1,-0.8 7.375,0.75 9.125,1.625c-4.042,-3.458 -14.325,-12.825 -23.125,-22.625Z" style="fill:rgb(189,189,189);fill-rule:nonzero;"/>
        </g>
    </g>
    <g id="triceps" transform="matrix(1,0,0,1,-1351.5,-706.5)">
        <g transform="matrix(1,0,0,1,1352.25,708.948)">
            <path d="M185.641,304.625l-2.375,-26.125c-2.459,2.958 -8.375,10.175 -12.375,15.375c-4,5.2 -12.417,13.25 -16.125,16.625c-1.167,1.208 -3.9,3.325 -5.5,2.125c-1.125,6.625 -6.625,24.125 -12.375,38.25c-5.744,14.11 -5.002,21.235 -4.377,27.231l0.002,0.019c0.625,6 1.375,5.375 2.375,10.5c1,5.125 1.25,8.25 -0.375,12c-1.3,3 -0.959,4.667 -0.625,5.125c0.833,0.333 2.85,0.525 4.25,-1.375c1.75,-2.375 6,-7 9.625,-10c3.625,-3 6.625,-8.5 7.875,-13c1,-3.6 5.916,-11.583 8.25,-15.125l10.875,-20.25l5,-11l4.75,-13.375l1.125,-6.625l0,-10.375Z" style="fill:rgb(189,189,189);fill-rule:nonzero;"/>
        </g>
        <g transform="matrix(1,0,0,1,1352.25,708.948)">
            <path d="M181.016,254.25l-3.75,-2.5c-1.4,1 -14.834,7.667 -21.375,10.875l-6.25,14.625c-2.209,4.917 -7.125,15.7 -9.125,19.5c-2.5,4.75 0.75,9 2.5,11.375c1.75,2.375 6.375,4.875 8.375,4.875c2,0 7.625,-6.125 16,-15c6.7,-7.1 13.291,-16.042 15.75,-19.625l-2.125,-24.125Z" style="fill:rgb(189,189,189);fill-rule:nonzero;"/>
        </g>
        <g transform="matrix(1,0,0,1,1352.25,708.948)">
            <path d="M148.391,279.75l7.5,-17.125c-4.709,2 -15.075,7.025 -18.875,11.125c-3.8,4.1 -9.5,14.542 -11.875,19.25l-3.875,8.125c-0.542,1.708 -2,6.125 -3.5,10.125c-1.875,5 -7.5,22 -9.375,30.25c-1.865,8.204 -1.752,11.093 -1.505,17.395l0.005,0.105c0.25,6.375 2.875,16.75 3.875,19.875c1,3.125 3.125,7.875 4.375,7.875c1.25,0 2.125,-9.875 1.5,-17.875c-0.625,-8 3.875,-20.875 10.125,-32.75c5,-9.5 12.083,-20.042 15,-24.125l2,-3.125c-3.9,-4.1 -4.375,-8.208 -4.125,-9.75l8.75,-19.375Z" style="fill:rgb(189,189,189);fill-rule:nonzero;"/>
        </g>
        <g transform="matrix(1,0,0,1,1352.25,708.948)">
            <path d="M447.13,279.75l-7.5,-17.125c4.7,2 15.07,7.025 18.87,11.125c3.8,4.1 9.5,14.542 11.87,19.25l3.88,8.125c0.54,1.708 2,6.125 3.5,10.125c1.88,5 7.5,22 9.38,30.25c1.86,8.204 1.75,11.093 1.5,17.395l0,0.105c-0.26,6.375 -2.88,16.75 -3.88,19.875c-1,3.125 -3.12,7.875 -4.38,7.875c-1.24,0 -2.12,-9.875 -1.5,-17.875c0.63,-8 -3.87,-20.875 -10.12,-32.75c-5,-9.5 -12.08,-20.042 -15,-24.125l-2,-3.125c3.9,-4.1 4.38,-8.208 4.12,-9.75l-8.74,-19.375Z" style="fill:rgb(189,189,189);fill-rule:nonzero;"/>
        </g>
        <g transform="matrix(1,0,0,1,1352.25,708.948)">
            <path d="M409.87,304.625l2.38,-26.125c2.46,2.958 8.38,10.175 12.38,15.375c4,5.2 12.41,13.25 16.12,16.625c1.17,1.208 3.9,3.325 5.5,2.125c1.12,6.625 6.62,24.125 12.38,38.25c5.74,14.11 5,21.235 4.37,27.231l0,0.019c-0.63,6 -1.37,5.375 -2.37,10.5c-1,5.125 -1.26,8.25 0.37,12c1.3,3 0.96,4.667 0.63,5.125c-0.84,0.333 -2.85,0.525 -4.26,-1.375c-1.74,-2.375 -6,-7 -9.62,-10c-3.62,-3 -6.62,-8.5 -7.88,-13c-1,-3.6 -5.91,-11.583 -8.24,-15.125l-10.88,-20.25l-5,-11l-4.75,-13.375l-1.13,-6.625l0,-10.375Z" style="fill:rgb(189,189,189);fill-rule:nonzero;"/>
        </g>
        <g transform="matrix(1,0,0,1,1352.25,708.948)">
            <path d="M414.5,254.25l3.75,-2.5c1.4,1 14.83,7.667 21.38,10.875l6.24,14.625c2.21,4.917 7.13,15.7 9.13,19.5c2.5,4.75 -0.75,9 -2.5,11.375c-1.75,2.375 -6.37,4.875 -8.37,4.875c-2,0 -7.63,-6.125 -16,-15c-6.7,-7.1 -13.3,-16.042 -15.76,-19.625l2.13,-24.125Z" style="fill:rgb(189,189,189);fill-rule:nonzero;"/>
        </g>
    </g>
    <g id="upperBack" transform="matrix(1,0,0,1,-1351.5,-706.5)">
        <g transform="matrix(1,0,0,1,1352.25,708.948)">
            <path d="M349.653,236.625c-2.5,-16.75 1.75,-16.625 20.247,-25c21.63,-9.125 29.13,-4.875 48.88,-3.5c19.75,1.375 19.37,9 19.37,18.875c-0,9.875 -15,22.347 -27.87,29.875c-1.95,1.138 -4.19,2.387 -6.63,3.702c11.63,-0.674 11.48,4.173 7.85,21.173c-3.5,16.422 -37.35,15 -44.97,13.5c-7.63,-1.5 -8.63,-8.375 -6.5,-12.068c-3.77,0.904 -5,-2.389 -6,-5.682c-1.25,-4.125 -1.877,-24.125 -4.377,-40.875Z" style="fill:rgb(189,189,189);fill-rule:nonzero;"/>
        </g>
        <g transform="matrix(1,0,0,1,1352.25,708.948)">
            <path d="M338.361,282.302c-9.58,21.341 -27.914,43.882 -38.111,54.948c0,27.75 7.912,59.75 13.287,65.75c5.375,6 -0.25,19.375 7.75,30.125c8,10.75 8.125,20.625 16,13.875c2.971,-2.546 5.55,-4.452 8,-5.745c22.123,-16.13 40.873,-44.255 41.873,-52.88c0.22,-1.581 0.79,-5.932 0.89,-7c0.49,-4.976 2.39,-9.01 4.33,-13.13l0.17,-0.37c2,-4.25 2.5,-4.75 4.5,-12.75c2,-8 9.99,-26.952 13.11,-36.577c-1.42,-8.616 -0.2,-18.682 1.64,-36.844c-17.09,5.616 -35.84,9.352 -53.04,6.995c-7.144,-0.98 -14.021,-3.012 -20.399,-6.397Z" style="fill:rgb(189,189,189);fill-rule:nonzero;"/>
        </g>
        <g transform="matrix(1,0,0,1,1352.25,708.948)">
            <path d="M256.926,282.302c9.58,21.341 27.914,43.882 38.111,54.948c0,27.75 -7.912,59.75 -13.287,65.75c-5.375,6 0.25,19.375 -7.75,30.125c-8,10.75 -8.125,20.625 -16,13.875c-2.971,-2.546 -5.55,-4.452 -8,-5.745c-22.125,-16.13 -40.875,-44.255 -41.875,-52.88c-0.22,-1.581 -0.784,-5.932 -0.888,-7c-0.486,-4.976 -2.385,-9.01 -4.326,-13.13l-0.174,-0.37c-2,-4.25 -2.5,-4.75 -4.5,-12.75c-2,-8 -9.987,-26.952 -13.112,-36.577c1.424,-8.616 0.204,-18.682 -1.636,-36.844c17.092,5.616 35.842,9.352 53.038,6.995c7.145,-0.98 14.021,-3.012 20.399,-6.397Z" style="fill:rgb(189,189,189);fill-rule:nonzero;"/>
        </g>
        <g transform="matrix(1,0,0,1,1352.25,708.948)">
            <path d="M350.125,226.375c-1.457,-8.25 1.278,-6.375 19.775,-14.75c21.63,-9.125 29.13,-4.875 48.88,-3.5c19.75,1.375 19.23,8.487 16.72,10.75c-3.87,3.5 -83.25,13.875 -85.375,7.5Z" style="fill:rgb(189,189,189);fill-rule:nonzero;stroke:black;stroke-width:1px;stroke-miterlimit:4;"/>
        </g>
        <g transform="matrix(1,0,0,1,1352.25,708.948)">
            <path d="M245.361,226.375c1.457,-8.25 -1.278,-6.375 -19.778,-14.75c-21.625,-9.125 -29.125,-4.875 -48.875,-3.5c-19.75,1.375 -19.227,8.487 -16.722,10.75c3.875,3.5 83.25,13.875 85.375,7.5Z" style="fill:rgb(189,189,189);fill-rule:nonzero;stroke:black;stroke-width:1px;stroke-miterlimit:4;"/>
        </g>
        <g transform="matrix(1,0,0,1,1352.25,708.948)">
            <path d="M325.713,92.75c-1.125,-1.375 -10.375,-0.375 -18.75,-0.875c-5.625,0 -9.25,-3.875 -9.25,10.875c0,62.875 15.25,60.75 15.25,63.625c0,3.875 -9.875,10.375 -12.25,37c-1.9,21.3 -2.792,100.042 -3,136.75c0.818,-0.844 1.727,-1.806 2.713,-2.875c10.197,-11.066 28.531,-33.607 38.111,-54.948c0.101,-0.226 0.201,-0.452 0.301,-0.677c3.933,-8.925 8.347,-18.377 12.546,-27.32c9.676,-20.615 18.216,-38.527 17.076,-41.055c-0.14,-0.327 -0.29,-0.629 -0.44,-0.907c-1.16,-2.184 -2.33,-2.894 -2.81,-2.968c3.25,-3.958 12.95,-12.475 25.75,-14.875c15.96,-2.992 37.01,-3.87 29.07,-7.47c-0.82,-0.332 -1.67,-0.674 -2.55,-1.03c-14.5,-5.875 -19.63,-3.5 -33.75,-8.375c-14.13,-4.875 -26,-10.25 -32.879,-14.25l-9.138,-5.875c-5.431,-3.54 -9.602,-8.961 -12.651,-15.125c-4.811,-9.725 -8.079,-20.424 -7.849,-29.375c0.322,-12.568 3.624,-18.292 4.5,-19.647c0.143,-0.221 0.158,-0.41 0,-0.603Z" style="fill:rgb(189,189,189);fill-rule:nonzero;"/>
        </g>
        <g transform="matrix(1,0,0,1,1352.25,708.948)">
            <path d="M269.548,92.75c1.125,-1.375 10.375,-0.375 18.75,-0.875c5.625,0 9.25,-3.875 9.25,10.875c0,62.875 -15.25,60.75 -15.25,63.625c0,3.875 9.875,10.375 12.25,37c1.9,21.3 2.792,100.042 3,136.75c-0.818,-0.844 -1.728,-1.806 -2.713,-2.875c-10.197,-11.066 -28.531,-33.607 -38.111,-54.948c-0.101,-0.226 -0.202,-0.452 -0.301,-0.677c-3.933,-8.925 -8.347,-18.377 -12.546,-27.32c-9.678,-20.615 -18.212,-38.527 -17.079,-41.055c0.147,-0.327 0.295,-0.629 0.443,-0.907c1.164,-2.184 2.326,-2.894 2.807,-2.968c-3.25,-3.958 -12.95,-12.475 -25.75,-14.875c-15.956,-2.992 -37.008,-3.87 -29.067,-7.47c0.824,-0.332 1.675,-0.674 2.554,-1.03c14.5,-5.875 19.625,-3.5 33.75,-8.375c14.125,-4.875 26,-10.25 32.875,-14.25l9.138,-5.875c5.431,-3.54 9.602,-8.961 12.651,-15.125c4.81,-9.725 8.078,-20.424 7.849,-29.375c-0.322,-12.568 -3.624,-18.292 -4.5,-19.647c-0.143,-0.221 -0.158,-0.41 0,-0.603Z" style="fill:rgb(189,189,189);fill-rule:nonzero;"/>
        </g>
        <g transform="matrix(1,0,0,1,1352.25,708.948)">
            <path d="M256.424,281.625c0.099,0.225 0.2,0.451 0.301,0.677c9.58,21.341 27.914,43.882 38.111,54.948c0.985,1.069 1.895,2.031 2.713,2.875c-0.167,-29.405 -0.772,-85.783 -1.983,-118l-65.517,-12.75c-0.481,0.074 -1.643,0.784 -2.807,2.968c-0.148,0.278 -0.296,0.58 -0.443,0.907c-1.133,2.528 7.401,20.44 17.079,41.055c4.199,8.943 8.613,18.395 12.546,27.32Z" style="fill:rgb(189,189,189);fill-rule:nonzero;"/>
        </g>
        <g transform="matrix(1,0,0,1,1352.25,708.948)">
            <path d="M338.838,281.625c-0.1,0.225 -0.2,0.451 -0.301,0.677c-9.58,21.341 -27.914,43.882 -38.111,54.948c-0.986,1.069 -1.895,2.031 -2.713,2.875c0.167,-29.405 0.772,-85.783 1.983,-118l65.514,-12.75c0.48,0.074 1.65,0.784 2.81,2.968c0.15,0.278 0.3,0.58 0.44,0.907c1.14,2.528 -7.4,20.44 -17.076,41.055c-4.199,8.943 -8.613,18.395 -12.546,27.32Z" style="fill:rgb(189,189,189);fill-rule:nonzero;"/>
        </g>
        <g transform="matrix(1,0,0,1,1352.25,708.948)">
            <path d="M269.548,92.75c1.125,-1.375 10.375,-0.375 18.75,-0.875c5.625,0 9.25,-3.875 9.25,10.875c0,62.875 -15.25,60.75 -15.25,63.625c-4.671,4.625 -67.048,31.125 -78,28.125c-15.956,-2.992 -37.008,-3.87 -29.067,-7.47c0.824,-0.332 1.675,-0.674 2.554,-1.03c14.5,-5.875 19.625,-3.5 33.75,-8.375c14.125,-4.875 26,-10.25 32.875,-14.25l9.138,-5.875c5.431,-3.54 9.602,-8.961 12.651,-15.125c4.81,-9.725 8.078,-20.424 7.849,-29.375c-0.322,-12.568 -3.624,-18.292 -4.5,-19.647c-0.144,-0.221 -0.158,-0.41 0,-0.603Z" style="fill:rgb(189,189,189);fill-rule:nonzero;"/>
        </g>
        <g transform="matrix(1,0,0,1,1352.25,708.948)">
            <path d="M325.749,92.75c-1.125,-1.375 -10.375,-0.375 -18.75,-0.875c-5.625,0 -9.25,-3.875 -9.25,10.875c0,62.875 15.25,60.75 15.25,63.625c4.671,4.625 67.051,31.125 78.001,28.125c15.95,-2.992 37.01,-3.87 29.07,-7.47c-0.83,-0.332 -1.68,-0.674 -2.56,-1.03c-14.5,-5.875 -19.62,-3.5 -33.75,-8.375c-14.12,-4.875 -26,-10.25 -32.873,-14.25l-9.138,-5.875c-5.431,-3.54 -9.602,-8.961 -12.651,-15.125c-4.81,-9.725 -8.078,-20.424 -7.849,-29.375c0.322,-12.568 3.624,-18.292 4.5,-19.647c0.143,-0.221 0.158,-0.41 0,-0.603Z" style="fill:rgb(189,189,189);fill-rule:nonzero;"/>
        </g>
        <g transform="matrix(1,0,0,1,1352.25,708.948)">
            <path d="M246,236.625c2.5,-16.75 -1.75,-16.625 -20.25,-25c-21.625,-9.125 -29.125,-4.875 -48.875,-3.5c-19.75,1.375 -19.375,9 -19.375,18.875c0,9.875 15.005,22.347 27.875,29.875c1.946,1.138 4.191,2.387 6.625,3.702c-13.25,-0.702 -10.25,5.673 -8.5,21.048c1.899,16.684 38,15.125 45.625,13.625c7.625,-1.5 8.625,-8.375 6.5,-12.068c3.766,0.904 5.002,-2.389 6,-5.682c1.25,-4.125 1.875,-24.125 4.375,-40.875Z" style="fill:rgb(189,189,189);fill-rule:nonzero;"/>
        </g>
    </g>
    <g id="shoulders" transform="matrix(1,0,0,1,-1351.5,-706.5)">
        <g transform="matrix(1,0,0,1,1352.25,708.948)">
            <path d="M423.26,197.469c1.87,-1.75 11.25,-5.125 16.25,0c2.14,2.041 7.12,7.299 9.89,12c10.75,15.75 11.75,37 11.75,48c0,8.727 0.41,17.029 0.62,20.173c-3.86,-6.539 -12.42,-10.791 -22.14,-15.321c-6.91,-3.225 -14.42,-6.59 -21.24,-11.019c-1.32,-0.861 -2.62,-1.761 -3.88,-2.708c-17,-12.75 -22.63,-25.875 -34.25,-35.5c-1.92,-1.589 -3.14,-2.987 -3.76,-4.234c-3.14,-6.306 8.98,-8.739 22.76,-12.391c16.5,-4.375 22.12,2.75 24,1Z" style="fill:rgb(189,189,189);fill-rule:nonzero;"/>
        </g>
        <g transform="matrix(1,0,0,1,1352.25,708.948)">
            <path d="M172.375,197.469c-1.875,-1.75 -11.25,-5.125 -16.25,0c-2.142,2.041 -7.119,7.299 -9.888,12c-10.75,15.75 -11.75,37 -11.75,48c0,8.727 -0.41,17.029 -0.619,20.173c3.859,-6.539 12.415,-10.791 22.132,-15.321c6.916,-3.225 14.421,-6.59 21.239,-11.019c1.325,-0.861 2.623,-1.761 3.886,-2.708c17,-12.75 22.625,-25.875 34.25,-35.5c1.919,-1.589 3.136,-2.987 3.757,-4.234c3.14,-6.306 -8.98,-8.739 -22.757,-12.391c-16.5,-4.375 -22.125,2.75 -24,1Z" style="fill:rgb(189,189,189);fill-rule:nonzero;"/>
        </g>
        <g transform="matrix(1,0,0,1,1352.25,708.948)">
            <path d="M180.125,208.249c-2.581,10.001 -12.125,19.126 -17.125,24.251c-2.142,2.042 -11.373,9.608 -15.875,13.625c-8.125,7.25 -12.875,17.781 -12.875,21.5c0,8.726 -0.176,7.039 -0.382,10.016c3.859,-6.538 12.415,-10.79 22.132,-15.321c6.916,-3.224 14.421,-6.589 21.239,-11.018c1.325,-0.861 2.623,-1.761 3.886,-2.709c17,-12.75 22.625,-25.875 34.25,-35.5c1.919,-1.588 3.137,-2.987 3.757,-4.233c3.14,-6.306 -8.981,-8.737 -22.757,-12.392c-12,-3.183 -15.25,7.907 -16.25,11.781Z" style="fill:rgb(189,189,189);fill-rule:nonzero;"/>
        </g>
        <g transform="matrix(1,0,0,1,1352.25,708.948)">
            <path d="M415.51,208.249c2.58,10.001 12.12,19.126 17.12,24.251c2.14,2.042 11.38,9.608 15.88,13.625c8.12,7.25 12.87,17.781 12.87,21.5c0,8.726 0.18,7.039 0.39,10.016c-3.86,-6.538 -12.42,-10.79 -22.14,-15.321c-6.91,-3.224 -14.42,-6.589 -21.24,-11.018c-1.32,-0.861 -2.62,-1.761 -3.88,-2.709c-17,-12.75 -22.63,-25.875 -34.25,-35.5c-1.92,-1.588 -3.14,-2.987 -3.76,-4.233c-3.14,-6.306 8.98,-8.737 22.76,-12.392c12,-3.183 15.25,7.907 16.25,11.781Z" style="fill:rgb(189,189,189);fill-rule:nonzero;"/>
        </g>
    </g>
    <g id="outline" transform="matrix(1,0,0,1,-1351.5,-706.5)">
        <g transform="matrix(1,0,0,1,1352.25,708.948)">
            <path d="M297.75,102.75c0,-14.75 3.625,-10.875 9.25,-10.875c8.375,0.5 17.625,-0.5 18.75,0.875c0.158,0.193 0.143,0.382 0,0.603m-28,9.397c0,62.875 15.25,60.75 15.25,63.625c0,3.875 -9.875,10.375 -12.25,37c-1.9,21.3 -2.792,100.042 -3,136.75m0,-237.375c0,-14.75 -3.625,-10.875 -9.25,-10.875c-8.375,0.5 -17.625,-0.5 -18.75,0.875c-0.158,0.193 -0.143,0.382 0,0.603m28,9.397c0,62.875 -15.25,60.75 -15.25,63.625c0,3.875 9.875,10.375 12.25,37c1.9,21.3 2.792,100.042 3,136.75m28,-246.772c2.593,-2.646 11.625,-1.478 11.625,0.897l0,28.125m-11.625,-29.022c-0.876,1.355 -4.178,7.079 -4.5,19.647c-0.23,8.951 3.039,19.65 7.849,29.375m-3.349,-49.022c2.25,2.647 5.198,28.772 3.349,49.022m-31.349,197.75c0.818,-0.844 1.727,-1.806 2.713,-2.875m-2.713,2.875c-0.818,-0.844 -1.727,-1.806 -2.713,-2.875m-25.287,-243.897c-2.593,-2.646 -11.625,-1.478 -11.625,0.897l0,28.125m11.625,-29.022c0.876,1.355 4.178,7.079 4.5,19.647c0.23,8.951 -3.039,19.65 -7.849,29.375m3.349,-49.022c-2.25,2.647 -5.198,28.772 -3.349,49.022m34.062,194.875c10.197,-11.066 28.531,-33.607 38.111,-54.948m-38.111,54.948c0,27.75 7.912,59.75 13.287,65.75c5.375,6 -0.25,19.375 7.75,30.125c8,10.75 8.125,20.625 16,13.875m-42.463,-109.75c-10.197,-11.066 -28.531,-33.607 -38.111,-54.948m38.111,54.948c0,27.75 -7.912,59.75 -13.287,65.75c-5.375,6 0.25,19.375 -7.75,30.125c-8,10.75 -8.125,20.625 -16,13.875m162,-260c8.12,3.625 -13,4.5 -29,7.5c-12.8,2.4 -22.5,10.917 -25.75,14.875c0.48,0.074 1.64,0.784 2.81,2.968m0,0c0.52,-0.233 1.05,-0.472 1.59,-0.718c2.45,-1.033 4.72,-1.895 6.84,-2.609m-8.43,3.327c0.15,0.278 0.29,0.58 0.44,0.907c1.13,2.528 -7.4,20.44 -17.079,41.055m-22.322,-111.93c3.049,6.164 7.22,11.585 12.651,15.125m97.75,40.125c-5,-5.125 -14.38,-1.75 -16.25,0c-1.88,1.75 -7.5,-5.375 -24,-1c-13.78,3.653 -25.9,6.086 -22.76,12.391m0,0c0.62,1.247 1.84,2.645 3.76,4.234c11.62,9.625 17.25,22.75 34.25,35.5c1.26,0.947 2.56,1.848 3.89,2.708m-79.816,30.844c0.101,-0.226 0.202,-0.452 0.301,-0.677c3.933,-8.925 8.347,-18.377 12.546,-27.32m-12.847,27.997c6.378,3.385 13.254,5.417 20.396,6.397m-7.549,-34.394c0.987,10.962 1.539,20.491 2.359,23.195c1,3.293 2.23,6.586 6,5.682m-0.81,5.517c17.2,2.357 35.95,-1.379 53.04,-6.995m-53.04,6.995c-0.4,-1.982 -0.06,-4.013 0.81,-5.517m52.23,-1.478c0.08,-0.026 0.16,-0.053 0.24,-0.079m-0.24,0.079c0.12,-1.199 0.25,-2.433 0.37,-3.704m-0.37,3.704c-2.56,25.255 -3.92,34.856 1.36,46.671m-0.99,-50.375c11.5,17 27.49,32.625 31.25,34.625c0.66,0.353 1.56,0.324 2.57,0m-33.82,-34.625c0.42,-4.186 0.86,-8.774 1.3,-13.834m0.82,-10.041c-0.27,3.542 -0.55,6.883 -0.82,10.041m0,0c-1.57,-2.76 -5.01,-3.894 -10.28,-3.589m42.8,52.048c1.67,-0.533 3.65,-1.866 5.39,-3.625m-5.39,3.625c5.39,25.5 18.93,47.125 17.3,62.375c-1.12,10.544 -3.68,14.993 -3.62,19.875m-20.25,-132.398c9.81,4.577 18.44,8.87 22.24,15.523m-22.24,-15.523c3.91,9.216 12.5,29.073 15.5,34.773c2,3.806 -0.35,8.504 -3.54,11.75m-11.96,-46.523c-6.92,-3.224 -14.43,-6.589 -21.24,-11.019m33.2,57.542c20.54,28.75 27.66,47 27.28,61.625c-0.17,6.81 -0.07,11.858 0.48,14.375m-60.96,-133.542c-2.78,1.982 -5.62,3.812 -8.36,5.417c-1.95,1.138 -4.19,2.387 -6.63,3.702m75.95,124.423c0.02,0.067 0.03,0.132 0.05,0.196m-0.05,-0.196c0.02,0.065 0.03,0.131 0.05,0.196m8.47,-41.196c2.63,12.875 -0.5,29.25 -4.5,38.5c-2.08,4.828 -3.32,5.365 -3.97,2.696m-0,0c3.96,17.098 1.58,22.812 -3.9,24.804c-1.8,0.653 -3.25,2.189 -4.39,4m-11.23,-19.125c0.02,2.179 0.57,4.444 1.99,7.375c1.63,4.25 -2.62,5.875 -5.37,1.25c-2.75,-4.625 -11.63,-10.75 -13.63,-14.875c-2,-4.125 -3.74,-10.75 -8,-17m25.01,23.25c0.5,-6 5.7,-8.417 8.25,-8.875m2.98,28c-1.64,2.625 -2.62,5.827 -2.98,7.75m2.98,-7.75c2.61,6.843 8.59,22.286 15.3,40.625m-0,0c9.09,24.869 15.41,43.943 20.59,65.235m-20.59,-65.235c-6.14,-23.166 4.43,-50.116 12.47,-72.125m8.12,137.36l-0,0.015m-0,-0.015c-1.96,-0.615 -3.53,-1.823 -4.37,-3.86m4.37,3.86c4.38,1.377 10.76,-0.216 15.57,-2.104m-23.69,-135.256c1.2,-3.287 2.35,-6.463 3.37,-9.5m-3.37,9.5c2.6,9.526 4.2,19.558 5.24,29.5m18.45,105.756c0.94,-0.373 1.83,-0.756 2.62,-1.131c6.63,-3.125 16.88,-7.375 14.5,-15.5m-17.12,16.631c-10.13,-33.995 -8.57,-70.131 -18.45,-105.756m-0,0c2.61,25.02 1.64,49.473 3.88,63.875c2.5,16.1 6.4,32.219 10.07,43.385m-180.57,-72.26c2.971,-2.546 5.55,-4.452 8,-5.745m-8,5.745c-6.754,7.598 -5.013,17.292 -6.23,22.454m14.23,-28.199c4.044,-2.133 7.74,-2.595 12.25,-1.505c7.25,1.75 8.25,-0.25 12.38,3.5c3.06,2.79 10.42,10.563 15.28,17.5m-39.91,-19.495c22.13,-16.13 40.87,-44.255 41.87,-52.88m-56.1,81.079c-0.044,0.188 -0.092,0.37 -0.145,0.546m0.145,-0.546c-0.048,0.18 -0.096,0.361 -0.145,0.546m0.145,-0.546c1.688,-6.296 2.884,-9.155 5.105,-11.531m49.035,2.827c-12.47,-14.375 -19.53,-17 -26.28,-17c-6.755,0 -9.755,4.375 -16.755,9.375c-2.453,1.752 -4.216,3.013 -5.594,4.381m48.629,3.244c1.09,1.565 2.06,3.087 2.82,4.5m-57.105,4.75c-1.5,5 -8.125,24.25 -13.625,33.625c-3.329,5.674 -7.116,12.082 -11.25,16.256m30.125,-61.958c0.132,-0.14 0.267,-0.279 0.406,-0.417m-0.406,0.417c0.131,-0.147 0.266,-0.286 0.406,-0.417m-30.531,62.375c-2.696,2.722 -5.54,4.494 -8.5,4.494c-2.96,-0 -5.804,-1.772 -8.5,-4.494m17,-0c-7,7.869 -8.5,14.494 -8.5,28.619m39.031,-90.994c5.615,-5.281 18.469,1.795 23.589,13.869c5.26,12.375 11.5,28.375 15.88,35.875m11.98,-42c-12.77,7.327 -11.98,26.75 -11.98,42m11.98,-42c0.4,0.742 0.74,1.453 1.02,2.125m-100,52.506c7,7.869 8.5,14.494 8.5,28.619m-8.5,-28.619c-4.134,-4.174 -7.921,-10.582 -11.25,-16.256c-5.5,-9.375 -12.125,-28.625 -13.625,-33.625m33.375,78.5c-0,10.581 -0.778,25.64 5.772,36.375m-5.772,-36.375c-0,10.581 0.778,25.64 -5.772,36.375m11.544,-0c2.194,3.595 5.21,6.706 9.353,9c5.163,2.859 9.985,4.709 14.875,6.003c9.526,2.52 19.31,2.928 32.38,4.573m-56.608,-19.576c0.925,18.31 10.315,52.815 17.881,77.5m-29.425,-77.5c-2.194,3.595 -5.21,6.706 -9.353,9c-5.163,2.859 -9.985,4.709 -14.875,6.003c-9.526,2.52 -19.31,2.928 -32.375,4.573m56.603,-19.576c-0.925,18.31 -10.315,52.815 -17.881,77.5m118.773,92.125c1.38,-16.875 4.13,-58.925 4.13,-92.125c-0,-15.572 -1.43,-27.449 -4.38,-36.375m-0,-0c-4.93,-14.862 -14.47,-19.048 -28.37,-21c-1.41,-0.198 -2.79,-0.38 -4.12,-0.549m32.49,21.549c7.38,-2.625 6.01,-23.125 6.01,-38c-0,-7.691 1.04,-22.307 2.12,-35.125m-40.62,51.576c4.76,35.898 5.51,89.673 2.97,123.049m37.65,-174.625c0.26,-3.105 0.52,-6.105 0.77,-8.875c0.31,-3.488 0.61,-6.612 0.85,-9.125m-1.62,18c-9.38,-10.75 -20.12,-38.125 -24.5,-45.625m-13.15,220.25c-0.73,9.554 -1.72,17.437 -2.97,22.75c-4.5,19.1 -8.38,28.226 -9.13,29.976m12.1,-52.726c-0.28,25.1 7.65,43.375 11.65,49.375m-23.75,3.351c-2.702,-0.348 -5.655,-0.222 -8,0.399c-4.25,1.125 -1.5,4.625 -1.625,12.5m9.625,-12.899c2.2,0.282 4.22,0.877 5.63,1.774c3.12,2 6.74,3.625 8.12,3.625m-23.375,7.5c-0.125,7.875 2.125,35.625 -5.125,64.25m5.125,-64.25c7.7,13.1 15.705,54.292 18.755,73.25m4.62,-80.75c1.38,-0 5.88,-9.625 15.38,-9.5c7.59,0.1 9.5,2.208 9.5,3.25c-0.5,3.125 -2.95,4.675 -2.76,10.375c0.05,1.15 0.21,2.26 0.48,3.375m-22.6,-7.5l1.62,35.875m-40.12,-37.375c-0,-11.375 7.25,-18.125 8.5,-30.5c0.771,-7.636 0.781,-10.418 -0,-16.538m-0,-0c-0.485,-3.799 -1.274,-8.883 -2.375,-17.212c-1.066,-8.067 -3.219,-22.678 -5.307,-39.75m7.682,56.962c-7.682,-31.712 -29.625,-80.212 -31.875,-92.337m18.528,17.625c2.103,6.862 4.065,12.965 5.665,17.75m-5.665,-17.75c-0.122,-13.9 0.581,-27.625 0.948,-32.75m4.717,50.5c-1.933,-15.804 -3.81,-33.717 -4.717,-50.5m-0,-0c-0.614,-11.355 -0.783,-22.192 -0.226,-31.509m65.225,195.009c1.37,5.793 5.36,11.695 7.78,23.75m-7.78,-23.75c-7.22,13.875 -12.6,42.625 -12.6,70.875m-41.375,74.125c8.25,29.75 18.125,32.875 22.995,32.625c4.88,-0.25 12.39,-11.875 11.9,-27c-0.09,-2.815 -0.18,-5.35 -0.27,-7.625m-0,-0c-0.41,-10.252 0.17,-18.704 -0,-20m-0,20c0.75,18.75 11.13,26.25 15.13,26.375c4,0.125 10.37,-2.25 13.87,-24.375m-55,32.625c10.75,39.13 15.63,91 7.875,121.5m-3.625,-11.75c0.375,16.75 8,13.88 12.12,13.75c1.92,-0.06 4.68,-1.55 7.26,-3.57m-0,0c-0.41,-7.78 0.02,-20.37 1.39,-34.93m-1.39,34.93c2.5,-1.96 4.84,-4.43 6.07,-6.56m9.93,-17.12c-2.55,3.88 -7.98,12.5 -9.38,16c-0.14,0.36 -0.33,0.74 -0.55,1.12m-0,-0c-0.56,-16 9.55,-33.87 10.67,-48.37m-15.35,20c0.13,-1.36 0.27,-2.74 0.41,-4.13m-0.41,4.13c0.1,-1.37 0.24,-2.75 0.41,-4.13m-0,0c3.53,-33.83 11.97,-76.4 26.57,-94.37m-26.57,94.37c2.7,-21.3 14.28,-44.14 20.07,-53.37m-2.63,85.87c-6.24,5.38 -16.62,17.13 -22.37,31.5c5.5,-6.5 9,-5.74 12.75,-10.74c3,-4 7.67,-10.5 9.62,-13.26m-0,33.5c2,-6 -4.37,-9.5 -2,-13c1.11,-1.63 2.57,-4.5 3.56,-7.63m-0,0c0.23,-0.74 0.44,-1.49 0.61,-2.24m-0.61,2.24c3.86,6.11 12.74,11.63 16.7,13.63m-16.38,-23.87c0.58,1.19 0.81,2.61 0.79,4.13m-0,0c6.58,8.24 17.09,12.24 20.33,11.87m-20.33,-11.87c-0.01,1.24 -0.2,2.56 -0.5,3.87m-0,0c7.83,7.5 12.59,9.37 14.71,9.87c1.7,0.41 5.54,1.5 7.25,2m99,-584.12c1.29,0.522 3.11,0.661 5.25,0.498m-0,0c1.77,-0.136 3.77,-0.479 5.88,-0.985m-5.88,0.985c3.34,14.05 5.79,32.562 6.94,43.127m-1.06,-44.112c0.77,-0.188 1.57,-0.397 2.37,-0.627m-2.37,0.627c-0.39,10.887 3.42,20.418 6.81,33.987m-5.75,10.125c0.18,1.618 0.32,3.049 0.44,4.25m-0.44,-4.25c-5.53,-1.875 -8.94,-8.875 -10.69,-18.625m12,-26.114c1.39,-0.398 2.81,-0.855 4.22,-1.361m-4.22,1.361c3.97,13.875 6.86,24.946 8.88,33.239m-4.44,1.375c1.01,4.051 1.99,8.461 2.81,13.375m-2.81,-13.375c1.15,-2 3.44,-1.75 4.44,-1.375m-4.66,-34.6c1.7,-0.607 3.39,-1.283 5.03,-2.007m-5.03,2.007c2.44,8.216 4.53,15.108 6.3,20.85m-1.64,13.75c2.19,9.035 3.35,14.773 3.75,17.25m-3.38,-53.857c1.94,-0.858 3.8,-1.784 5.5,-2.745m-5.5,2.745c5.02,7.982 10.26,22.77 13.63,33.607m-12.36,-10.75c5.26,16.956 7.8,23.88 8.48,25.25m-8.48,-25.25c5.85,4.75 3.86,-3.75 12.36,10.75m-8.13,-36.352c2.33,6.576 8.92,24.352 16.62,42.852m-16.62,-42.852c0.56,-0.317 1.1,-0.637 1.62,-0.96m6.51,37.312c1.03,3.301 1.88,6.236 2.49,8.5m-9,-45.812c1.7,-1.05 3.18,-2.127 4.33,-3.188m-4.33,3.188c8.98,13.73 16.52,28.619 21.08,38.562m-16.75,-41.75c0.73,-0.677 1.34,-1.347 1.78,-2m-1.78,2c0.71,1.461 1.58,3.193 2.55,5.11m14.2,36.64c1.54,3.346 2.74,6.132 3.55,8.125m-3.55,-8.125c-0.9,0.542 -2.58,3.75 -2.08,12.25m-12.89,-56c0.72,-1.061 1.01,-2.077 0.77,-3m-0.77,3c6.22,6.4 17.77,13 22.77,15.5m-22,-8.39c3.41,6.707 8.18,15.693 12.77,23.39m-12.77,-23.39c2.25,1.856 6.58,5.067 11.5,7.979m1.27,15.411c2.85,4.783 5.63,9.068 7.98,12m-7.98,-12c-3.02,-6.9 -2.1,-13.149 -1.27,-15.411m-0,0c2.02,1.193 4.13,2.335 6.25,3.314m4.25,1.722c-1.39,-0.476 -2.82,-1.062 -4.25,-1.722m-0,0c1.8,4.412 4.42,5.153 5.5,4.972m1.25,-14.482c3,3.984 4.5,9.148 4.88,11.232m-214.35,-253.568c0.95,-0.229 2.06,-0.725 3.37,-1.557c5.55,-3.519 26.11,-13.408 40.25,-21.048m163.99,284.298c1.75,0 5.5,1.625 7.12,2.75c1.63,1.125 2.25,3 5.25,5.25c3,2.25 8.38,3.5 12.25,2c1.34,-0.517 2.15,-1.391 2.59,-2.375c0.82,-1.871 0.27,-4.142 -0.71,-5.125c-1.5,-1.5 -3.63,-2.875 -4.75,-4c-0.22,-0.222 -0.39,-0.428 -0.51,-0.629c-0.53,-0.82 -0.46,-1.541 -1.37,-2.746c-1.12,-1.5 -3.37,-3.625 -5.12,-5c-1.75,-1.375 -5.5,-3.125 -7.38,-4.25c-1.87,-1.125 -3.25,-3.125 -5,-4.375c-1.75,-1.25 -6.12,-3.875 -10.62,-5.75c-1.29,-0.542 -4.13,-1.7 -5.13,-2c-1.25,-0.375 -7.75,-2.5 -8.87,-4c-1.13,-1.5 -11.13,-28.25 -15.25,-41.625c-4.13,-13.375 -7,-38 -14.13,-63.625c-7.12,-25.625 -13.62,-36.5 -19.12,-46.75c-5.5,-10.25 -7.75,-12.25 -9.88,-22.625c-1.7,-8.309 -6.45,-21.026 -9.55,-30c-0.78,-2.232 -1.45,-4.232 -1.95,-5.875c-2,-6.6 -9.83,-20.25 -13.5,-26.25c-0.21,-3.083 -0.62,-11.45 -0.62,-20.25c-0,-11 -1,-32.25 -11.75,-48c-10.02,-14.675 -16.45,-17.413 -29.02,-22.471c-0.91,-0.37 -1.87,-0.753 -2.86,-1.154c-14.5,-5.875 -19.62,-3.5 -33.75,-8.375c-14.12,-4.875 -26,-10.25 -32.872,-14.25c-6.875,-4 -13.25,-8.125 -13.5,-11.125c-0.066,-0.797 -0.098,-3.408 -0.107,-6.875c-0.019,-6.972 0.051,-17.405 0.107,-23.5c2.487,-3.125 3,-11.5 3.5,-14.625c0.5,-3.125 0.375,-5.75 0.75,-4.875c0.375,0.875 0.875,2.375 3.875,2.75c3,0.375 5.25,-7 7.377,-10.625c2.12,-3.625 3.62,-11.875 3.87,-17.75c0.06,-1.358 -0.04,-2.516 -0.25,-3.5c-0.72,-3.271 -2.76,-4.616 -4.872,-5c-2.2,-0.4 -3.917,2.25 -4.5,3.625c0.792,-8.542 1.75,-27.575 -0.75,-35.375c-3.125,-9.75 -17.375,-36 -48.625,-36m269.627,544.375c1.21,2.667 3.97,8.975 5.37,12.875c1.75,4.875 4.63,16.75 5.75,21.25c1.13,4.5 3.13,12.875 4.13,18.125c1,5.25 2.25,12.25 2.37,14.75c0.09,1.643 0.82,5.932 -0.4,8.75c-0.63,1.47 -1.79,2.539 -3.85,2.625c-2.2,0.092 -3.82,-0.958 -5.02,-2.375c-2.06,-2.448 -2.82,-5.992 -2.98,-6.625c-0.16,-0.655 -0.75,-4.206 -1.28,-7c-0.28,-1.471 -0.54,-2.733 -0.72,-3.25c-0.36,-1.093 -2.05,-6.96 -3.81,-12.578c-0.66,-2.096 -1.33,-4.156 -1.94,-5.922c-2.25,-6.5 -3.12,-8.875 -3.62,-9.75c-0.5,-0.875 -1.38,0.25 -1.13,0.625c0.25,0.375 1.63,3 2.25,5.625c0.63,2.625 4.38,15.875 5.25,20.25c0.88,4.375 0.75,6.375 1.5,10.5c0.75,4.125 2.63,10.625 2.63,15.75c-0,1.389 -0.08,2.65 -0.28,3.75c-0.51,2.957 -1.8,4.75 -4.35,4.75c-2.96,0 -4.57,-1.696 -5.31,-2.75c-0.13,-0.193 -0.23,-0.365 -0.31,-0.5c-0.5,-0.875 -2,-4.375 -2.63,-7.125c-0.62,-2.75 -1.75,-9.5 -2.25,-11.5c-0.5,-2 -4.62,-20.25 -6,-24.25c-1.37,-4 -2.5,-7.875 -3.12,-8.5c-0.63,-0.625 -1.88,0 -1.5,0.75c0.37,0.75 4.25,13.75 5.5,20c1.25,6.25 1.37,9.875 2.5,14.25c0.66,2.592 2.34,8.257 2.09,12.625c-0.18,3.003 -1.26,5.393 -4.22,5.75c-2.14,0.259 -3.87,-0.969 -5.26,-2.907c-3.31,-4.617 -4.71,-13.267 -5.24,-15.468c-0.75,-3.125 -3.37,-11.375 -3.87,-13.75c-0.5,-2.375 -2.25,-9.875 -3.25,-12.75c-1,-2.875 -2.38,-8.125 -3.75,-7.75c-1.38,0.375 1.5,7.75 2,9.5c0.5,1.75 1.25,6.75 1.75,8.625c0.27,1.021 1.06,3.748 1.79,6.625c0.6,2.406 1.16,4.917 1.33,6.625c0.1,1.001 0.17,1.975 0.13,2.875c-0.11,2.472 -1.01,4.383 -4.13,4.75c-4.25,0.5 -6.87,-10.125 -7.5,-11.75c-0.62,-1.625 -5,-15.125 -5.37,-16.875c-0.38,-1.75 -3.25,-9.5 -4.63,-12.25c-0.68,-1.369 -1.68,-4.442 -2.64,-8c-0.97,-3.589 -1.92,-7.673 -2.48,-11c-1.13,-6.625 -3.5,-14.125 -2.63,-20.25c0.88,-6.125 1.38,-8.75 -0.5,-13.25c-1.87,-4.5 -4,-10.5 -5.75,-14.125c-1.75,-3.625 -8,-17.375 -27,-42.375c-17.82,-23.447 -29.48,-49.643 -33.54,-66.625c-0.27,-1.125 -0.51,-2.209 -0.71,-3.25c-2.6,-13.4 -4.75,-25.583 -5.5,-30c-11.31,-19.189 -19.95,-35.301 -25.02,-53.25c-3.12,9.625 -10.98,28 -12.98,36c-2,8 -2.5,8.5 -4.5,12.75l-0.17,0.37c-1.94,4.12 -3.84,8.154 -4.33,13.13c-0.1,1.068 -0.28,2.419 -0.5,4c-0.39,2.823 -0.91,6.38 -1.35,10.375c-0.5,4.502 -0.9,9.56 -0.9,14.75c-0,12.375 4.63,23 4.38,34.625c-0.08,3.744 -0.19,6.801 -0.3,9.375c-0.22,5.419 -0.45,8.699 -0.45,11.75c-0,4.5 5,13 7.25,30.25c1.72,13.176 3.36,19.424 4.38,26.375c0.31,2.149 0.57,4.366 0.74,6.875c0.35,2.145 0.74,4.628 1.16,7.375c3.03,19.985 7.53,53.922 7.7,73c0.26,27.125 -2,59.625 -2.24,70c-0.26,10.375 -1.63,24.75 -5.13,37.75c-0.33,1.235 -0.69,2.487 -1.07,3.75c-3.59,12.029 -8.83,25.039 -9.06,33.75c-0.24,9.625 3.13,11.75 3.38,26.625c0.25,14.875 -0.62,30.125 -0.88,34.125c-0.24,4 9.76,50.25 8.13,71.5c-1.15,15.102 -4.84,39.612 -7.9,59.125c-1.25,7.943 -2.39,15.059 -3.23,20.375c-2.87,18.375 -11.38,71.075 -11.42,87.255c-0,4.74 1.3,19.12 1.92,20.5c0.63,1.37 2.13,4.77 2.13,7.74c-0,2.88 -1.37,5.76 -0,9c1.37,3.26 6.97,7.36 8,8.13c2.94,2.2 4.47,3.77 9.87,6.25c6.26,2.88 10.63,9.25 -0,12.25c-10.62,3 -17.86,6.63 -17.86,6.63c-0.76,2.62 -2.94,5.5 -7.38,6c-12.29,1.37 -29.049,1.63 -33.755,-6.96c-0.375,-1.25 -4.125,-10.54 -0.875,-16.3c1.175,-2.07 2.056,-3.48 2.625,-4.63m221.765,-558.115l-2.14,-3.875m-219.625,561.99c0.284,-0.57 0.491,-1.08 0.617,-1.57m-0.617,1.57c0.227,-0.51 0.432,-1.04 0.617,-1.57m-0,0c0.321,-1.25 0.744,-6.03 -0,-7.92c-0.744,-1.89 -0.617,-6.12 -0.617,-9.38c-0,-2.5 1.624,-7.86 2.154,-10.87c0.618,-3.5 -0.154,-3.87 0.221,-10.63c0.375,-6.74 0.25,-29 -0,-43.5c-0.25,-14.5 -4.375,-48.12 -11.75,-70.87c-2.057,-6.347 -3.512,-12.421 -4.509,-18.25c-2.579,-15.065 -2.107,-28.493 -1.116,-40.75c1.375,-17 9.375,-38.625 6.375,-54.5c-3,-15.875 -8.75,-25.875 -10,-35.625c-1.25,-9.75 -0.625,-31.625 -1.75,-35.375c-0.314,-1.047 -0.813,-3.537 -1.381,-6.75c-1.465,-8.295 -3.384,-21.414 -3.744,-27c-0.289,-4.474 -2.91,-16.446 -5.556,-28.125c-0.451,-1.994 -0.904,-3.979 -1.345,-5.916l-0.304,-1.334c-1.334,-5.854 -2.541,-11.182 -3.295,-14.875c-2.5,-12.25 -8.18,-42.375 -8.25,-43.5c-0.07,-1.125 -3.625,-14.375 -3.625,-64c-0,49.625 -3.555,62.875 -3.625,64c-0.07,1.125 -5.75,31.25 -8.25,43.5c-0.754,3.693 -1.961,9.021 -3.295,14.875l-0.304,1.334c-0.441,1.937 -0.894,3.922 -1.345,5.916c-2.646,11.679 -5.267,23.651 -5.556,28.125c-0.36,5.586 -2.279,18.705 -3.744,27c-0.568,3.213 -1.067,5.703 -1.381,6.75c-1.125,3.75 -0.5,25.625 -1.75,35.375c-1.25,9.75 -7,19.75 -10,35.625c-3,15.875 5,37.5 6.375,54.5c0.991,12.257 1.463,25.685 -1.116,40.75c-0.997,5.829 -2.452,11.903 -4.509,18.25c-7.375,22.75 -11.5,56.37 -11.75,70.87c-0.25,14.5 -0.375,36.76 -0,43.5c0.375,6.76 -0.397,7.13 0.221,10.63c0.53,3.01 2.154,8.37 2.154,10.87c-0,3.26 0.127,7.49 -0.617,9.38c-0.744,1.89 -0.321,6.67 -0,7.92m-0,0c0.126,0.49 0.333,1 0.617,1.57m-0.617,-1.57c0.185,0.53 0.39,1.06 0.617,1.57m277.725,-529.26c0.94,3.303 2.45,8.317 -0,9.75c1.88,0.277 0.91,2.593 1.2,4.91c0.26,2.047 3.13,7.748 2.34,10.124m-0,0c-0.11,0.314 -0.28,0.57 -0.52,0.751m0.52,-0.751c1.25,0.942 0.27,3.116 0.53,5.575c0.27,2.459 3.11,5.492 1.54,9.304c-1.57,3.812 -3.2,-3.125 -3.46,-3.922c-0.27,-0.796 -0.75,-4.405 -1.73,-5.434c-0.99,-1.03 -1.06,-3.947 -0.42,-4.012c-0.83,-0.263 -1.44,-1.013 -1.57,-2.219c-0.27,-2.441 -1.71,-7.296 -2.38,-8.784c-0.66,-1.488 -2.22,-4.274 -0.99,-5.667c-3.64,-1.321 -1.03,-8.426 -0.93,-12.968m18.52,2.725c0.98,2.619 6.17,6.636 2.04,8.992c1.88,0.553 2.25,3.039 1.81,6.316c-0.44,3.276 1.63,8.672 2.11,9.722c0.42,0.935 2.88,3.702 0.1,4.982c1.32,0.385 1.65,1.916 2.03,4.631c0.37,2.716 2.04,6.428 2.04,9.064c-0,1.286 1.59,7.124 -0,7.536c-1.19,0.309 -2.58,-5.573 -3.47,-7.25c-1.12,-2.125 -6.25,-13.25 -4.11,-13.559c-2.44,-0.68 -2.37,-4.144 -2.55,-8.192c-0.22,-5.015 -6.05,-9.626 -4.09,-12.768c-3.05,-0.098 -2.13,-2.946 -1.97,-3.512m18.6,-13.692c3.35,6.046 8.22,12.251 4.05,14.035c-0.13,0.056 -0.26,0.111 -0.38,0.165c2.8,-1.063 2.94,3.596 2.9,4.602c-0.03,1.03 2.09,10.1 2.89,11.374c0.79,1.257 2.77,3.238 0.31,4.186m-0,0c1.04,-0.217 1.62,0.738 1.7,2.777c0.1,2.37 1.16,8.247 1.73,9.743c0.7,1.841 0.84,6.099 0.7,7.489c-0.15,1.39 1.64,7.227 -0,7.227c-1.64,0 -1.73,-5.776 -2.43,-6.5c-0.7,-0.724 -1.53,-5.073 -2.24,-7.625c-0.76,-2.743 -4.02,-8.932 -3,-12.003c-1.26,0.106 -2.13,-0.536 -1.95,-3.154c0.33,-4.721 -3.99,-9.353 -4.48,-10.797c-0.49,-1.445 -2.34,-4.054 -0.48,-5.975c-1.61,0.135 -2.63,-0.552 -2.71,-2.762c-0.16,-3.95 -2.75,-11.338 -3.24,-12.782m16.4,34.362c-0.03,0.013 -0.07,0.026 -0.1,0.039m3.07,-40.802c4.92,5.981 7.25,9.922 4.55,11.375c1.55,0.014 2.03,-1.815 3.08,4.25c1.05,6.065 0.75,5.625 2.17,8.725c1.3,2.847 3.39,4.532 1.51,5.962c1.44,-0.42 1.19,2.891 1.45,4.437c0.25,1.546 2.59,9.391 2.25,11.125c-0.35,1.734 2.25,9.376 -0,9.375c-2.25,0 -2.98,-7.375 -4,-8.5c-1.02,-1.125 -2.23,-10.134 -2.5,-12c-0.27,-1.866 -0.95,-2.877 -0.52,-3.367c-1.56,-0.097 -2.23,-1.401 -2.48,-3.106c-0.36,-2.378 -2.93,-7.19 -4,-9.026c-1.08,-1.835 -2.97,-5.57 -1.51,-6.337c-2.17,0.518 -2.5,-0.162 -3.04,-3.407m4.12,-36.321c1.37,0.175 2.89,0.884 3.07,2.248c0.05,0.361 -0.04,0.696 -0.18,1.031c0.27,-0.288 2.25,-2.562 4.01,0.359c1.77,2.921 2.69,2.435 4.07,3.389c1.39,0.954 6.83,2.135 6.66,3.67c-0.03,0.186 -0.08,0.408 -0.16,0.652c1.84,1.65 2.71,2.82 3.59,3.712c0.88,0.893 4.04,2.436 3.2,3.532c-0.83,1.096 -2.87,-0.591 -5.11,-1.77c-1.68,-0.883 -2.64,-1.828 -3.59,-2.654c-0.79,0.594 -1.67,0.7 -2.45,-0.362c-1.84,-2.534 -7.7,-5.184 -9.19,-4.99c-1.48,0.194 -2.32,-0.327 -2.52,-1.436m-392.51,-352.547c-8.125,3.625 13,4.5 29,7.5c12.8,2.4 22.5,10.917 25.75,14.875c-0.481,0.074 -1.643,0.784 -2.807,2.968m-0,0c-0.52,-0.233 -1.052,-0.472 -1.596,-0.718c-2.448,-1.033 -4.716,-1.895 -6.84,-2.609m8.436,3.327c-0.148,0.278 -0.296,0.58 -0.443,0.907c-1.133,2.528 7.401,20.44 17.079,41.055m22.322,-111.93c-3.049,6.164 -7.22,11.585 -12.651,15.125m-97.75,40.125c5,-5.125 14.375,-1.75 16.25,0c1.875,1.75 7.5,-5.375 24,-1c13.776,3.653 25.897,6.086 22.757,12.391m-0,0c-0.621,1.247 -1.838,2.645 -3.757,4.234c-11.625,9.625 -17.25,22.75 -34.25,35.5c-1.263,0.947 -2.562,1.848 -3.886,2.708m79.812,30.844c-0.101,-0.226 -0.202,-0.452 -0.301,-0.677c-3.933,-8.925 -8.347,-18.377 -12.546,-27.32m12.847,27.997c-6.378,3.385 -13.254,5.417 -20.399,6.397m7.552,-34.394c-0.987,10.962 -1.537,20.491 -2.357,23.195c-0.998,3.293 -2.235,6.586 -6,5.682m0.805,5.517c-17.196,2.357 -35.946,-1.379 -53.037,-6.995m53.037,6.995c0.408,-1.982 0.06,-4.013 -0.805,-5.517m-52.232,-1.478c-0.08,-0.026 -0.16,-0.053 -0.24,-0.079m0.24,0.079c-0.122,-1.199 -0.246,-2.433 -0.372,-3.704m0.372,3.704c2.558,25.255 3.918,34.856 -1.365,46.671m0.993,-50.375c-11.493,17 -27.493,32.625 -31.243,34.625c-0.661,0.353 -1.563,0.324 -2.579,0m33.822,-34.625c-0.416,-4.186 -0.854,-8.774 -1.295,-13.834m-0.823,-10.041c0.272,3.542 0.548,6.883 0.823,10.041m-0,0c1.566,-2.76 5.01,-3.894 10.274,-3.589m-42.801,52.048c-1.67,-0.533 -3.65,-1.866 -5.381,-3.625m5.381,3.625c-5.381,25.5 -18.921,47.125 -17.296,62.375c1.124,10.544 3.681,14.993 3.624,19.875m20.251,-132.398c-9.817,4.577 -18.448,8.87 -22.25,15.523m22.25,-15.523c-3.917,9.216 -12.5,29.073 -15.5,34.773c-2.003,3.806 0.345,8.504 3.54,11.75m11.96,-46.523c6.916,-3.224 14.42,-6.589 21.239,-11.019m-33.199,57.542c-20.54,28.75 -27.665,47 -27.29,61.625c0.175,6.81 0.078,11.858 -0.479,14.375m60.968,-133.542c2.772,1.982 5.614,3.812 8.358,5.417c1.946,1.138 4.19,2.387 6.625,3.702m-75.951,124.423c-0.014,0.067 -0.029,0.132 -0.045,0.196m0.045,-0.196c-0.015,0.065 -0.03,0.131 -0.045,0.196m-8.476,-41.196c-2.625,12.875 0.5,29.25 4.5,38.5c2.088,4.828 3.324,5.365 3.976,2.696m-0,0c-3.958,17.098 -1.58,22.812 3.899,24.804c1.796,0.653 3.251,2.189 4.386,4m11.238,-19.125c-0.025,2.179 -0.572,4.444 -1.999,7.375c-1.625,4.25 2.625,5.875 5.375,1.25c2.75,-4.625 11.625,-10.75 13.625,-14.875c2,-4.125 3.75,-10.75 8,-17m-25.001,23.25c-0.499,-6 -5.707,-8.417 -8.249,-8.875m-2.989,28c1.645,2.625 2.619,5.827 2.989,7.75m-2.989,-7.75c-2.604,6.843 -8.583,22.286 -15.291,40.625m-0,0c-9.097,24.869 -15.411,43.943 -20.591,65.235m20.591,-65.235c6.135,-23.166 -4.439,-50.116 -12.478,-72.125m-8.113,137.36c-0.002,0.005 -0.003,0.01 -0.004,0.015m0.004,-0.015c1.959,-0.615 3.522,-1.823 4.371,-3.86m-4.371,3.86c-4.389,1.377 -10.767,-0.216 -15.57,-2.104m23.683,-135.256c-1.2,-3.287 -2.344,-6.463 -3.367,-9.5m3.367,9.5c-2.592,9.526 -4.195,19.558 -5.233,29.5m-18.45,105.756c-0.946,-0.373 -1.831,-0.756 -2.625,-1.131c-6.625,-3.125 -16.875,-7.375 -14.5,-15.5m17.125,16.631c10.125,-33.995 8.566,-70.131 18.45,-105.756m-0,0c-2.612,25.02 -1.648,49.473 -3.884,63.875c-2.5,16.1 -6.399,32.219 -10.066,43.385m180.566,-72.26c-2.971,-2.546 -5.55,-4.452 -8,-5.745m8,5.745c6.754,7.598 5.013,17.292 6.23,22.454m-14.23,-28.199c-4.044,-2.133 -7.735,-2.595 -12.25,-1.505c-7.25,1.75 -8.25,-0.25 -12.375,3.5c-3.069,2.79 -10.429,10.563 -15.283,17.5m39.908,-19.495c-22.125,-16.13 -40.875,-44.255 -41.875,-52.88m56.105,81.079c0.044,0.188 0.092,0.37 0.145,0.546m-0.145,-0.546c0.048,0.18 0.096,0.361 0.145,0.546m-0.145,-0.546c-1.688,-6.296 -2.884,-9.155 -5.105,-11.531m-49.033,2.827c12.468,-14.375 19.533,-17 26.283,-17c6.75,0 9.75,4.375 16.75,9.375c2.453,1.752 4.216,3.013 5.594,4.381m-48.627,3.244c-1.094,1.565 -2.062,3.087 -2.824,4.5m51.857,-7.327c-0.132,-0.14 -0.267,-0.279 -0.406,-0.417m0.406,0.417c-0.131,-0.147 -0.266,-0.286 -0.406,-0.417m-0,-0c-5.615,-5.281 -18.472,1.795 -23.594,13.869c-5.25,12.375 -11.5,28.375 -15.875,35.875m-11.982,-42c12.769,7.327 11.982,26.75 11.982,42m-11.982,-42c-0.399,0.742 -0.743,1.453 -1.018,2.125m-3.625,287.125c-1.375,-16.875 -4.125,-58.925 -4.125,-92.125c-0,-15.572 1.426,-27.449 4.383,-36.375m-0,0c4.923,-14.862 14.466,-19.048 28.367,-21c1.412,-0.198 2.786,-0.38 4.125,-0.549m-32.492,21.549c-7.383,-2.625 -6.008,-23.125 -6.008,-38c-0,-7.691 -1.044,-22.307 -2.121,-35.125m40.621,51.576c-4.762,35.898 -5.519,89.673 -2.977,123.049m-37.644,-174.625c-0.26,-3.105 -0.523,-6.105 -0.773,-8.875c-0.315,-3.488 -0.61,-6.612 -0.856,-9.125m1.629,18c9.38,-10.75 20.121,-38.125 24.496,-45.625m13.148,220.25c0.727,9.554 1.725,17.437 2.977,22.75c4.5,19.1 8.375,28.226 9.125,29.976m-12.102,-52.726c0.282,25.1 -7.648,43.375 -11.648,49.375m23.75,3.351c2.702,-0.348 5.655,-0.222 8,0.399c4.25,1.125 1.5,4.625 1.625,12.5m-9.625,-12.899c-2.195,0.282 -4.224,0.877 -5.625,1.774c-3.125,2 -6.75,3.625 -8.125,3.625m23.375,7.5c0.125,7.875 -2.125,35.625 5.125,64.25m-5.125,-64.25c-7.7,13.1 -15.708,54.292 -18.75,73.25m-4.625,-80.75c-1.375,0 -5.875,-9.625 -15.375,-9.5c-7.6,0.1 -9.5,2.208 -9.5,3.25c0.5,3.125 2.95,4.675 2.75,10.375c-0.04,1.15 -0.208,2.26 -0.472,3.375m22.597,-7.5l-1.625,35.875m40.125,-37.375c-0,-11.375 -7.25,-18.125 -8.5,-30.5c-0.771,-7.636 -0.781,-10.418 -0,-16.538m-0,0c0.485,-3.799 1.274,-8.883 2.375,-17.212c1.066,-8.067 3.219,-22.678 5.307,-39.75m-7.682,56.962c7.682,-31.712 29.625,-80.212 31.875,-92.337m-18.528,17.625c-2.103,6.862 -4.065,12.965 -5.665,17.75m5.665,-17.75c0.122,-13.9 -0.581,-27.625 -0.948,-32.75m-4.717,50.5c1.933,-15.804 3.81,-33.717 4.717,-50.5m-0,0c0.614,-11.355 0.783,-22.192 0.226,-31.509m-65.222,195.009c-1.373,5.793 -5.367,11.695 -7.778,23.75m7.778,-23.75c7.222,13.875 12.597,42.625 12.597,70.875m41.375,74.125c-8.25,29.75 -18.125,32.875 -23,32.625c-4.875,-0.25 -12.387,-11.875 -11.899,-27c0.091,-2.815 0.183,-5.35 0.274,-7.625m-0,0c0.411,-10.252 -0.171,-18.704 -0,-20m-0,20c-0.753,18.75 -11.125,26.25 -15.125,26.375c-4,0.125 -10.375,-2.25 -13.875,-24.375m55,32.625c-10.75,39.13 -15.625,91 -7.875,121.5m3.625,-11.75c-0.375,16.75 -8,13.88 -12.125,13.75c-1.918,-0.06 -4.674,-1.55 -7.25,-3.57m-0,0c0.409,-7.78 -0.022,-20.37 -1.397,-34.93m1.397,34.93c-2.507,-1.96 -4.844,-4.43 -6.071,-6.56m-9.929,-17.12c2.542,3.88 7.975,12.5 9.375,16c0.144,0.36 0.331,0.74 0.554,1.12m-0,-0c0.555,-16 -9.554,-33.87 -10.679,-48.37m15.353,20c-0.129,-1.36 -0.266,-2.74 -0.411,-4.13m0.411,4.13c-0.097,-1.37 -0.235,-2.75 -0.411,-4.13m-0,0c-3.526,-33.83 -11.971,-76.4 -26.567,-94.37m26.567,94.37c-2.702,-21.3 -14.277,-44.14 -20.067,-53.37m2.625,85.87c6.25,5.38 16.625,17.13 22.375,31.5c-5.5,-6.5 -9,-5.74 -12.75,-10.74c-3,-4 -7.667,-10.5 -9.625,-13.26m-0,33.5c-2,-6 4.375,-9.5 2,-13c-1.106,-1.63 -2.565,-4.5 -3.556,-7.63m-0,0c-0.233,-0.74 -0.44,-1.49 -0.611,-2.24m0.611,2.24c-3.855,6.11 -12.736,11.63 -16.694,13.63m16.375,-23.87c-0.582,1.19 -0.812,2.61 -0.792,4.13m-0,0c-6.583,8.24 -17.083,12.24 -20.333,11.87m20.333,-11.87c0.017,1.24 0.203,2.56 0.5,3.87m-0,0c-7.833,7.5 -12.583,9.37 -14.708,9.87c-1.7,0.41 -5.542,1.5 -7.25,2m-99,-584.12c-1.294,0.522 -3.111,0.661 -5.25,0.498m-0,0c-1.774,-0.136 -3.77,-0.479 -5.875,-0.985m5.875,0.985c-3.341,14.05 -5.792,32.562 -6.941,43.127m1.066,-44.112c-0.779,-0.188 -1.572,-0.397 -2.375,-0.627m2.375,0.627c0.385,10.887 -3.421,20.418 -6.816,33.987m5.75,10.125c-0.175,1.618 -0.321,3.049 -0.434,4.25m0.434,-4.25c5.531,-1.875 8.941,-8.875 10.691,-18.625m-12,-26.114c-1.39,-0.398 -2.807,-0.855 -4.221,-1.361m4.221,1.361c-3.972,13.875 -6.862,24.946 -8.879,33.239m4.438,1.375c-1.014,4.051 -1.991,8.461 -2.809,13.375m2.809,-13.375c-1.147,-2 -3.436,-1.75 -4.438,-1.375m4.658,-34.6c-1.697,-0.607 -3.391,-1.283 -5.029,-2.007m5.029,2.007c-2.435,8.216 -4.524,15.108 -6.303,20.85m1.645,13.75c-2.196,9.035 -3.355,14.773 -3.746,17.25m3.375,-53.857c-1.939,-0.858 -3.801,-1.784 -5.5,-2.745m5.5,2.745c-5.019,7.982 -10.262,22.77 -13.63,33.607m12.356,-10.75c-5.252,16.956 -7.791,23.88 -8.476,25.25m8.476,-25.25c-5.851,4.75 -3.86,-3.75 -12.356,10.75m8.13,-36.352c-2.333,6.576 -8.925,24.352 -16.625,42.852m16.625,-42.852c-0.56,-0.317 -1.103,-0.637 -1.625,-0.96m-6.505,37.312c-1.025,3.301 -1.877,6.236 -2.495,8.5m9,-45.812c-1.697,-1.05 -3.174,-2.127 -4.325,-3.188m4.325,3.188c-8.979,13.73 -16.511,28.619 -21.079,38.562m16.754,-41.75c-0.734,-0.677 -1.336,-1.347 -1.778,-2m1.778,2c-0.714,1.461 -1.576,3.193 -2.55,5.11m-14.204,36.64c-1.537,3.346 -2.738,6.132 -3.546,8.125m3.546,-8.125c0.901,0.542 2.579,3.75 2.079,12.25m12.897,-56c-0.719,-1.061 -1.015,-2.077 -0.772,-3m0.772,3c-6.218,6.4 -17.772,13 -22.772,15.5m22,-8.39c-3.405,6.707 -8.175,15.693 -12.767,23.39m12.767,-23.39c-2.248,1.856 -6.577,5.067 -11.5,7.979m-1.267,15.411c-2.853,4.783 -5.637,9.068 -7.983,12m7.983,-12c3.014,-6.9 2.1,-13.149 1.267,-15.411m-0,0c-2.018,1.193 -4.135,2.335 -6.25,3.314m-4.25,1.722c1.395,-0.476 2.822,-1.062 4.25,-1.722m-0,0c-1.8,4.412 -4.417,5.153 -5.5,4.972m-1.25,-14.482c-3,3.984 -4.5,9.148 -4.875,11.232m214.347,-253.568c-0.951,-0.229 -2.064,-0.725 -3.375,-1.557c-5.545,-3.519 -26.104,-13.408 -40.25,-21.048m-163.985,284.298c-1.75,0 -5.5,1.625 -7.125,2.75c-1.625,1.125 -2.25,3 -5.25,5.25c-3,2.25 -8.375,3.5 -12.25,2c-1.336,-0.517 -2.152,-1.391 -2.586,-2.375c-0.825,-1.871 -0.272,-4.142 0.711,-5.125c1.5,-1.5 3.625,-2.875 4.75,-4c0.222,-0.222 0.385,-0.428 0.513,-0.629c0.523,-0.82 0.459,-1.541 1.362,-2.746c1.125,-1.5 3.375,-3.625 5.125,-5c1.75,-1.375 5.5,-3.125 7.375,-4.25c1.875,-1.125 3.25,-3.125 5,-4.375c1.75,-1.25 6.125,-3.875 10.625,-5.75c1.292,-0.542 4.125,-1.7 5.125,-2c1.25,-0.375 7.75,-2.5 8.875,-4c1.125,-1.5 11.125,-28.25 15.25,-41.625c4.125,-13.375 7,-38 14.125,-63.625c7.125,-25.625 13.625,-36.5 19.125,-46.75c5.5,-10.25 7.75,-12.25 9.875,-22.625c1.702,-8.309 6.45,-21.026 9.558,-30c0.773,-2.232 1.444,-4.232 1.942,-5.875c2,-6.6 9.833,-20.25 13.5,-26.25c0.208,-3.083 0.625,-11.45 0.625,-20.25c-0,-11 1,-32.25 11.75,-48c10.017,-14.675 16.452,-17.413 29.013,-22.471c0.92,-0.37 1.873,-0.753 2.862,-1.154c14.5,-5.875 19.625,-3.5 33.75,-8.375c14.125,-4.875 26,-10.25 32.875,-14.25c6.875,-4 13.25,-8.125 13.5,-11.125c0.066,-0.797 0.098,-3.408 0.107,-6.875c0.019,-6.972 -0.051,-17.405 -0.107,-23.5c-2.487,-3.125 -3,-11.5 -3.5,-14.625c-0.5,-3.125 -0.375,-5.75 -0.75,-4.875c-0.375,0.875 -0.875,2.375 -3.875,2.75c-3,0.375 -5.25,-7 -7.375,-10.625c-2.125,-3.625 -3.625,-11.875 -3.875,-17.75c-0.058,-1.358 0.038,-2.516 0.254,-3.5c0.717,-3.271 2.757,-4.616 4.871,-5c2.2,-0.4 3.917,2.25 4.5,3.625c-0.792,-8.542 -1.75,-27.575 0.75,-35.375c3.125,-9.75 17.375,-36 48.625,-36m-269.625,544.375c-1.208,2.667 -3.975,8.975 -5.375,12.875c-1.75,4.875 -4.625,16.75 -5.75,21.25c-1.125,4.5 -3.125,12.875 -4.125,18.125c-1,5.25 -2.25,12.25 -2.375,14.75c-0.082,1.643 -0.812,5.932 0.4,8.75c0.633,1.47 1.793,2.539 3.85,2.625c2.199,0.092 3.827,-0.958 5.02,-2.375c2.061,-2.448 2.822,-5.992 2.98,-6.625c0.164,-0.655 0.757,-4.206 1.287,-7c0.279,-1.471 0.541,-2.733 0.713,-3.25c0.364,-1.093 2.055,-6.96 3.816,-12.578c0.656,-2.096 1.323,-4.156 1.934,-5.922c2.25,-6.5 3.125,-8.875 3.625,-9.75c0.5,-0.875 1.375,0.25 1.125,0.625c-0.25,0.375 -1.625,3 -2.25,5.625c-0.625,2.625 -4.375,15.875 -5.25,20.25c-0.875,4.375 -0.75,6.375 -1.5,10.5c-0.75,4.125 -2.625,10.625 -2.625,15.75c-0,1.389 0.083,2.65 0.273,3.75c0.512,2.957 1.801,4.75 4.352,4.75c2.958,0 4.577,-1.696 5.309,-2.75c0.134,-0.193 0.239,-0.365 0.316,-0.5c0.5,-0.875 2,-4.375 2.625,-7.125c0.625,-2.75 1.75,-9.5 2.25,-11.5c0.5,-2 4.625,-20.25 6,-24.25c1.375,-4 2.5,-7.875 3.125,-8.5c0.625,-0.625 1.875,0 1.5,0.75c-0.375,0.75 -4.25,13.75 -5.5,20c-1.25,6.25 -1.375,9.875 -2.5,14.25c-0.667,2.592 -2.343,8.257 -2.089,12.625c0.174,3.003 1.26,5.393 4.214,5.75c2.144,0.259 3.872,-0.969 5.263,-2.907c3.313,-4.617 4.709,-13.267 5.237,-15.468c0.75,-3.125 3.375,-11.375 3.875,-13.75c0.5,-2.375 2.25,-9.875 3.25,-12.75c1,-2.875 2.375,-8.125 3.75,-7.75c1.375,0.375 -1.5,7.75 -2,9.5c-0.5,1.75 -1.25,6.75 -1.75,8.625c-0.272,1.021 -1.064,3.748 -1.788,6.625c-0.607,2.406 -1.166,4.917 -1.337,6.625c-0.1,1.001 -0.165,1.975 -0.124,2.875c0.11,2.472 1.008,4.383 4.124,4.75c4.25,0.5 6.875,-10.125 7.5,-11.75c0.625,-1.625 5,-15.125 5.375,-16.875c0.375,-1.75 3.25,-9.5 4.625,-12.25c0.685,-1.369 1.679,-4.442 2.644,-8c0.973,-3.589 1.916,-7.673 2.481,-11c1.125,-6.625 3.5,-14.125 2.625,-20.25c-0.875,-6.125 -1.375,-8.75 0.5,-13.25c1.875,-4.5 4,-10.5 5.75,-14.125c1.75,-3.625 8,-17.375 27,-42.375c17.82,-23.447 29.482,-49.643 33.543,-66.625c0.269,-1.125 0.505,-2.209 0.707,-3.25c2.6,-13.4 4.75,-25.583 5.5,-30c11.311,-19.189 19.958,-35.301 25.02,-53.25c3.125,9.625 10.98,28 12.98,36c2,8 2.5,8.5 4.5,12.75l0.174,0.37c1.941,4.12 3.841,8.154 4.326,13.13c0.104,1.068 0.285,2.419 0.505,4c0.393,2.823 0.912,6.38 1.353,10.375c0.496,4.502 0.892,9.56 0.892,14.75c-0,12.375 -4.625,23 -4.375,34.625c0.081,3.744 0.187,6.801 0.294,9.375c0.226,5.419 0.456,8.699 0.456,11.75c-0,4.5 -5,13 -7.25,30.25c-1.719,13.176 -3.364,19.424 -4.38,26.375c-0.314,2.149 -0.568,4.366 -0.745,6.875c-0.347,2.145 -0.736,4.628 -1.154,7.375c-3.035,19.985 -7.532,53.922 -7.708,73c-0.25,27.125 2,59.625 2.25,70c0.25,10.375 1.625,24.75 5.125,37.75c0.333,1.235 0.691,2.487 1.068,3.75c3.588,12.029 8.831,25.039 9.057,33.75c0.25,9.625 -3.125,11.75 -3.375,26.625c-0.25,14.875 0.625,30.125 0.875,34.125c0.25,4 -9.75,50.25 -8.125,71.5c1.155,15.102 4.835,39.612 7.9,59.125c1.248,7.943 2.393,15.059 3.225,20.375c2.875,18.375 11.383,71.075 11.424,87.255c-0,4.74 -1.299,19.12 -1.924,20.5c-0.625,1.37 -2.125,4.77 -2.125,7.74c-0,2.88 1.375,5.76 -0,9c-1.375,3.26 -6.974,7.36 -8,8.13c-2.943,2.2 -4.474,3.77 -9.875,6.25c-6.25,2.88 -10.625,9.25 -0,12.25c10.625,3 17.865,6.63 17.865,6.63c0.76,2.62 2.935,5.5 7.385,6c12.282,1.37 29.044,1.63 33.75,-6.96c0.375,-1.25 4.125,-10.54 0.875,-16.3c-1.175,-2.07 -2.056,-3.48 -2.625,-4.63m-221.763,-558.115l2.138,-3.875m37.652,32.73c-0.943,3.303 -2.454,8.317 -0,9.75c-1.883,0.277 -0.91,2.593 -1.201,4.91c-0.256,2.047 -3.135,7.748 -2.34,10.124m-0,0c0.106,0.314 0.275,0.57 0.523,0.751m-0.523,-0.751c-1.251,0.942 -0.266,3.116 -0.536,5.575c-0.27,2.459 -3.108,5.492 -1.536,9.304c1.572,3.812 3.204,-3.125 3.466,-3.922c0.261,-0.796 0.741,-4.405 1.727,-5.434c0.985,-1.03 1.061,-3.947 0.42,-4.012c0.831,-0.263 1.434,-1.013 1.568,-2.219c0.273,-2.441 1.713,-7.296 2.378,-8.784c0.666,-1.488 2.224,-4.274 0.991,-5.667c3.642,-1.321 1.032,-8.426 0.933,-12.968m-18.522,2.725c-0.981,2.619 -6.169,6.636 -2.036,8.992c-1.886,0.553 -2.253,3.039 -1.814,6.316c0.44,3.276 -1.633,8.672 -2.106,9.722c-0.422,0.935 -2.88,3.702 -0.107,4.982c-1.316,0.385 -1.649,1.916 -2.026,4.631c-0.376,2.716 -2.043,6.428 -2.042,9.064c-0,1.286 -1.589,7.124 -0,7.536c1.191,0.309 2.582,-5.573 3.47,-7.25c1.125,-2.125 6.25,-13.25 4.112,-13.559c2.442,-0.68 2.369,-4.144 2.549,-8.192c0.223,-5.015 6.052,-9.626 4.089,-12.768c3.048,-0.098 2.133,-2.946 1.966,-3.512m-18.591,-13.692c-3.355,6.046 -8.222,12.251 -4.059,14.035c0.131,0.056 0.261,0.111 0.389,0.165c-2.804,-1.063 -2.946,3.596 -2.908,4.602c0.039,1.03 -2.087,10.1 -2.888,11.374c-0.791,1.257 -2.764,3.238 -0.308,4.186m-0,0c-1.037,-0.217 -1.624,0.738 -1.704,2.777c-0.092,2.37 -1.155,8.247 -1.724,9.743c-0.7,1.841 -0.844,6.099 -0.7,7.489c0.144,1.39 -1.639,7.227 -0,7.227c1.639,0 1.723,-5.776 2.424,-6.5c0.701,-0.724 1.535,-5.073 2.245,-7.625c0.763,-2.743 4.02,-8.932 2.998,-12.003c1.258,0.106 2.13,-0.536 1.947,-3.154c-0.331,-4.721 3.996,-9.353 4.487,-10.797c0.492,-1.445 2.337,-4.054 0.477,-5.975c1.608,0.135 2.626,-0.552 2.712,-2.762c0.153,-3.95 2.745,-11.338 3.237,-12.782m-16.399,34.362c0.034,0.013 0.068,0.026 0.104,0.039m-3.076,-40.802c-4.919,5.981 -7.247,9.922 -4.549,11.375c-1.55,0.014 -2.029,-1.815 -3.08,4.25c-1.051,6.065 -0.75,5.625 -2.167,8.725c-1.301,2.847 -3.389,4.532 -1.51,5.962c-1.447,-0.42 -1.195,2.891 -1.448,4.437c-0.252,1.546 -2.593,9.391 -2.25,11.125c0.343,1.734 -2.25,9.376 -0,9.375c2.25,0 2.98,-7.375 4,-8.5c1.02,-1.125 2.231,-10.134 2.5,-12c0.269,-1.866 0.95,-2.877 0.513,-3.367c1.561,-0.097 2.23,-1.401 2.487,-3.106c0.358,-2.378 2.922,-7.19 4,-9.026c1.078,-1.835 2.965,-5.57 1.504,-6.337c2.169,0.518 2.505,-0.162 3.043,-3.407m-4.123,-36.321c-1.363,0.175 -2.888,0.884 -3.066,2.248c-0.047,0.361 0.034,0.696 0.18,1.031c-0.277,-0.288 -2.249,-2.562 -4.017,0.359c-1.767,2.921 -2.681,2.435 -4.066,3.389c-1.384,0.954 -6.833,2.135 -6.655,3.67c0.022,0.186 0.077,0.408 0.16,0.652c-1.846,1.65 -2.71,2.82 -3.593,3.712c-0.883,0.893 -4.042,2.436 -3.205,3.532c0.838,1.096 2.878,-0.591 5.118,-1.77c1.68,-0.883 2.641,-1.828 3.589,-2.654c0.782,0.594 1.669,0.7 2.442,-0.362c1.843,-2.534 7.703,-5.184 9.191,-4.99c1.487,0.194 2.324,-0.327 2.525,-1.436" style="fill:none;fill-rule:nonzero;stroke:black;stroke-width:1px;stroke-miterlimit:4;"/>
        </g>
        <g transform="matrix(1,0,0,1,1352.25,708.948)">
            <path d="M297.549,340.125c-0.818,-0.844 -1.728,-1.806 -2.713,-2.875c-10.197,-11.066 -28.531,-33.607 -38.111,-54.948c-0.101,-0.226 -0.202,-0.452 -0.301,-0.677c-3.933,-8.925 -8.347,-18.377 -12.546,-27.32c-9.678,-20.615 -18.212,-38.527 -17.079,-41.055c0.147,-0.327 0.295,-0.629 0.443,-0.907c1.164,-2.184 2.326,-2.894 2.807,-2.968l65.517,12.75c1.211,32.217 1.816,88.595 1.983,118Zm0,0c0.818,-0.844 1.727,-1.806 2.713,-2.875" style="fill:none;fill-rule:nonzero;stroke:black;stroke-width:1px;stroke-miterlimit:4;"/>
        </g>
        <g transform="matrix(1,0,0,1,1352.25,708.948)">
            <path d="M297.713,340.125c0.818,-0.844 1.727,-1.806 2.713,-2.875c10.197,-11.066 28.531,-33.607 38.111,-54.948c0.101,-0.226 0.201,-0.452 0.301,-0.677c3.933,-8.925 8.347,-18.377 12.546,-27.32c9.676,-20.615 18.216,-38.527 17.076,-41.055c-0.14,-0.327 -0.29,-0.629 -0.44,-0.907c-1.16,-2.184 -2.33,-2.894 -2.81,-2.968l-65.514,12.75c-1.211,32.217 -1.816,88.595 -1.983,118Zm0,0c-0.818,-0.844 -1.728,-1.806 -2.713,-2.875" style="fill:none;fill-rule:nonzero;stroke:black;stroke-width:1px;stroke-miterlimit:4;"/>
        </g>
        <g transform="matrix(1,0,0,1,1352.25,708.948)">
            <path d="M175.298,187c-8.125,3.625 13,4.5 29,7.5c10.952,3 73.329,-23.5 78,-28.125c0,-2.875 15.25,-0.75 15.25,-63.625c0,-14.75 -3.625,-10.875 -9.25,-10.875c-8.375,0.5 -17.625,-0.5 -18.75,0.875c-0.158,0.193 -0.144,0.382 0,0.603c0.876,1.355 4.178,7.079 4.5,19.647c0.229,8.951 -3.039,19.65 -7.849,29.375c-3.049,6.164 -7.22,11.585 -12.651,15.125l-9.138,5.875c-6.875,4 -18.75,9.375 -32.875,14.25c-14.125,4.875 -19.25,2.5 -33.75,8.375c-0.989,0.401 -1.942,0.784 -2.862,1.154" style="fill:none;fill-rule:nonzero;stroke:black;stroke-width:1px;stroke-miterlimit:4;"/>
        </g>
        <g transform="matrix(1,0,0,1,1352.25,708.948)">
            <path d="M133.75,277.843c3.802,-6.653 12.433,-10.946 22.25,-15.523c6.916,-3.224 14.421,-6.589 21.239,-11.018c1.325,-0.861 2.623,-1.761 3.886,-2.709c17,-12.75 22.625,-25.875 34.25,-35.5c1.919,-1.588 3.137,-2.987 3.757,-4.233c3.14,-6.306 -8.981,-8.737 -22.757,-12.392c-12,-3.183 -15.25,7.907 -16.25,11.781c-2.581,10.001 -12.125,19.126 -17.125,24.251c-2.142,2.042 -11.373,9.608 -15.875,13.625c-8.125,7.25 -12.875,17.781 -12.875,21.5c0,8.8 -0.179,7.01 -0.388,10.093" style="fill:none;fill-rule:nonzero;stroke:black;stroke-width:1px;stroke-miterlimit:4;"/>
        </g>
        <g transform="matrix(1,0,0,1,1352.25,708.948)">
            <path d="M461.88,277.843c-3.8,-6.653 -12.43,-10.946 -22.25,-15.523c-6.91,-3.224 -14.42,-6.589 -21.24,-11.018c-1.32,-0.861 -2.62,-1.761 -3.88,-2.709c-17,-12.75 -22.63,-25.875 -34.25,-35.5c-1.92,-1.588 -3.14,-2.987 -3.76,-4.233c-3.14,-6.306 8.98,-8.737 22.76,-12.392c12,-3.183 15.25,7.907 16.25,11.781c2.58,10.001 12.12,19.126 17.12,24.251c2.14,2.042 11.38,9.608 15.88,13.625c8.12,7.25 12.87,17.781 12.87,21.5c0,8.8 0.18,7.01 0.39,10.093" style="fill:none;fill-rule:nonzero;stroke:black;stroke-width:1px;stroke-miterlimit:4;"/>
        </g>
        <g transform="matrix(1,0,0,1,1352.25,708.948)">
            <path d="M262.125,938.125c-8.25,29.75 -18.125,32.875 -23,32.625c-4.875,-0.25 -12.387,-11.875 -11.899,-27c0.091,-2.815 0.183,-5.35 0.274,-7.625c-0.752,18.75 -11.125,26.25 -15.125,26.375c-3.512,0.11 -8.854,-1.708 -12.475,-17.127l1.6,11.877c14.596,17.97 23.042,60.54 26.568,94.37c0.145,1.39 0.282,2.77 0.41,4.13c1.375,14.56 1.806,27.15 1.397,34.93c2.576,2.02 5.332,3.51 7.25,3.57c2,0.2 4.084,0.25 4.875,0.25l3,-1l0.625,-1c-7.75,-30.5 -2.875,-82.62 7.875,-121.75c0,-2.7 5.75,-22.875 8.625,-32.625Z" style="fill:none;fill-rule:nonzero;stroke:black;stroke-width:1px;stroke-miterlimit:4;"/>
        </g>
        <g transform="matrix(1,0,0,1,1352.25,708.948)">
            <path d="M333.5,938.25c8.25,29.75 18.125,32.875 23,32.625c4.87,-0.25 12.39,-11.875 11.9,-27c-0.09,-2.815 -0.18,-5.35 -0.28,-7.625c0.76,18.75 11.13,26.25 15.13,26.375c3.51,0.11 8.85,-1.708 12.47,-17.127l-1.6,11.877c-14.59,17.97 -23.04,60.545 -26.56,94.365c-0.15,1.4 -0.28,2.77 -0.41,4.14c-1.38,14.55 -1.81,27.14 -1.4,34.93c-2.58,2.02 -5.33,3.51 -7.25,3.57c-2,0.2 -4.08,0.24 -4.88,0.24l-2.995,-1l-0.625,-1c7.75,-30.5 2.87,-82.62 -7.875,-121.745c0,-2.7 -5.75,-22.875 -8.625,-32.625Z" style="fill:none;fill-rule:nonzero;stroke:black;stroke-width:1px;stroke-miterlimit:4;"/>
        </g>
        <g transform="matrix(1,0,0,1,1352.25,708.948)">
            <path d="M325.749,92.75c-1.125,-1.375 -10.375,-0.375 -18.75,-0.875c-5.625,0 -9.25,-3.875 -9.25,10.875c0,62.875 15.25,60.75 15.25,63.625c4.671,4.625 67.051,31.125 78.001,28.125c15.95,-2.992 37.01,-3.87 29.07,-7.47c-0.83,-0.332 -1.68,-0.674 -2.56,-1.03c-14.5,-5.875 -19.62,-3.5 -33.75,-8.375c-14.12,-4.875 -26,-10.25 -32.873,-14.25l-9.138,-5.875c-5.431,-3.54 -9.602,-8.961 -12.651,-15.125c-4.81,-9.725 -8.078,-20.424 -7.849,-29.375c0.322,-12.568 3.624,-18.292 4.5,-19.647c0.143,-0.221 0.158,-0.41 0,-0.603Z" style="fill:none;fill-rule:nonzero;stroke:rgb(35,31,32);stroke-width:0.83px;stroke-linecap:butt;stroke-miterlimit:2;"/>
        </g>
    </g>
</svg>
